<svg xmlns="http://www.w3.org/2000/svg" width="375.328" height="221.395" viewBox="0 0 375.328 221.395">
  <g id="diy" transform="matrix(0.966, -0.259, 0.259, 0.966, -6491.192, -2515.53)" opacity="0.1">
    <path id="Path_8835" data-name="Path 8835" d="M5927.577,4197.974h-312.03a20.274,20.274,0,0,0-20.214,20.214v94.335a20.274,20.274,0,0,0,20.214,20.215h312.03a20.274,20.274,0,0,0,20.214-20.215v-94.335A20.274,20.274,0,0,0,5927.577,4197.974Zm-224.465,99.819c-8.907,6.877-19.955,9.921-37.317,9.921a128.176,128.176,0,0,1-21.757-1.578l13.979-73.618a124.862,124.862,0,0,1,21.983-1.8c11.5,0,20.744,2.254,27.622,7.44,6.99,5.412,11.273,13.19,11.273,25.141C5718.895,4278.4,5712.356,4290.69,5703.112,4297.793Zm28.188,10.484c-6.313,0-10.485-4.4-10.485-10.484,0-7.1,5.186-13.19,12.739-13.19,6.2,0,10.6,4.4,10.6,10.935C5744.152,4303.092,5738.741,4308.277,5731.3,4308.277Zm39.683-1.015h-19.166l14.318-75.985h19.277Zm24.917,1.015c-6.313,0-10.485-4.4-10.485-10.484,0-7.1,5.186-13.19,12.739-13.19,6.2,0,10.6,4.4,10.6,10.935C5808.751,4303.092,5803.34,4308.277,5795.9,4308.277Zm46.111-1.015h-19.278l5.862-30.665-14.995-45.32h20.631l3.721,17.023c1.239,6.2,2.029,9.921,2.819,14.205H5841c2.368-4.51,4.622-8.681,7.553-14.205l9.358-17.023h23l-33.033,44.757Zm32.019,1.015c-6.313,0-10.484-4.4-10.484-10.484,0-7.1,5.185-13.19,12.738-13.19,6.2,0,10.6,4.4,10.6,10.935C5886.882,4303.092,5881.471,4308.277,5874.03,4308.277Z" fill="#442fd6"/>
    <path id="Path_8836" data-name="Path 8836" d="M5700.489,4259.8a28.261,28.261,0,0,0-5.41.451l-8.682,45.433a54.264,54.264,0,0,0,5.863.338c7.44,0,14.768-2.931,19.165-8.342,4.4-5.3,6.764-12.175,6.764-20.631C5718.189,4265.667,5711.538,4259.8,5700.489,4259.8Z" transform="translate(-20.263 -13.758)" fill="#442fd6"/>
  </g>
</svg>
