<?xml version="1.0" encoding="utf-8"?>
<!-- Generator: Adobe Illustrator 22.0.1, SVG Export Plug-In . SVG Version: 6.00 Build 0)  -->
<svg version="1.1" id="Layer_1" xmlns="http://www.w3.org/2000/svg" xmlns:xlink="http://www.w3.org/1999/xlink" x="0px" y="0px"
	 viewBox="0 0 1220.5 559.9" style="enable-background:new 0 0 1220.5 559.9;" xml:space="preserve">
<style type="text/css">
	.st0{fill:url(#SVGID_1_);}
	.st1{fill:url(#SVGID_2_);}
	.st2{clip-path:url(#SVGID_4_);}
	.st3{fill:#81BAC0;}
	.st4{fill:#92C2C5;}
	.st5{fill:#A8CAC7;}
	.st6{fill:#1288A7;}
	.st7{fill:#2899AA;}
	.st8{fill:url(#SVGID_5_);}
	.st9{fill:url(#SVGID_6_);}
	.st10{fill:#58A7B3;}
	.st11{fill:#1386A9;}
	.st12{fill:#0C7BA4;}
	.st13{fill:#1891AE;}
	.st14{fill:#2999B2;}
	.st15{fill:#3DA5B8;}
	.st16{fill:#36A0B5;}
	.st17{fill:#4DA6AF;}
	.st18{fill:url(#SVGID_7_);}
</style>
<g>
	<linearGradient id="SVGID_1_" gradientUnits="userSpaceOnUse" x1="785.9007" y1="55.4794" x2="785.9007" y2="454.0649">
		<stop  offset="0" style="stop-color:#4AA5B4"/>
		<stop  offset="1" style="stop-color:#0E78A4"/>
	</linearGradient>
	<path class="st0" d="M865.7,124.1l31.1-22.4c0,0-28.6-48.4-105-48.4c-83.1,0-123.4,55.1-123.4,95.3c0,44.9,3.1,87.2,89.2,116.8
		c69.8,21.9,109.1,35.7,109.1,80.6c0,51-45.4,79-81.1,79c-44.9,0-68.9-15-89-41.1c-20.1-26.2-10.4-0.7-10.4-0.7l42.3,73.4l6.7-5.8
		c0,0,5,5.8,46.8,5.8c48.4,0,121.3-19.9,121.3-111.7c0-84.1-89.7-95.8-126.4-110.1c-36.7-14.3-73.4-24-73.4-79.5
		c0-51.5,52.5-69.3,86.7-69.3C818.8,85.9,847.3,96.6,865.7,124.1z"/>
	<linearGradient id="SVGID_2_" gradientUnits="userSpaceOnUse" x1="143.2618" y1="61.8975" x2="143.2618" y2="441.9343">
		<stop  offset="0" style="stop-color:#4AA5B4"/>
		<stop  offset="1" style="stop-color:#0E78A4"/>
	</linearGradient>
	<polygon class="st1" points="80.6,238.8 274.8,62.9 223.3,62.9 39.3,232.7 35.7,232.7 35.7,62.9 0,62.9 0,447.3 35.7,447.3 
		35.7,249 39.3,249 235,447.3 286.5,447.3 	"/>
	<g>
		<defs>
			<path id="SVGID_3_" d="M475.3,0.3L152.1,560h646.3L475.3,0.3z M475.3,147.8l195.4,338.5H279.8L475.3,147.8z"/>
		</defs>
		<clipPath id="SVGID_4_">
			<use xlink:href="#SVGID_3_"  style="overflow:visible;"/>
		</clipPath>
		<g class="st2">
			<polygon class="st3" points="289.1,284.2 383.9,386.7 321.7,412.1 246.2,314.3 			"/>
			<polygon class="st4" points="266.1,315.8 299.8,458 351.3,419.8 341.6,386.7 			"/>
			<polygon class="st5" points="273.8,314.3 308.4,469.8 424.7,445.8 459.9,602.3 106,565.6 			"/>
			<polygon class="st6" points="745.9,467.2 743.8,560 796.9,532.5 			"/>
			<polygon class="st7" points="671,357.6 752.5,563.6 748.4,392.8 700,314.3 			"/>
			<linearGradient id="SVGID_5_" gradientUnits="userSpaceOnUse" x1="613.9313" y1="397.2205" x2="662.8798" y2="576.1882">
				<stop  offset="0" style="stop-color:#61ACB4"/>
				<stop  offset="1" style="stop-color:#42A1AF"/>
			</linearGradient>
			<polygon class="st8" points="673,358.1 765.3,590.1 561.8,567.1 637.3,396.3 			"/>
			<linearGradient id="SVGID_6_" gradientUnits="userSpaceOnUse" x1="656.0843" y1="393.3163" x2="426.6385" y2="566.1655">
				<stop  offset="0" style="stop-color:#8EBFB9"/>
				<stop  offset="1" style="stop-color:#8EBFC0"/>
			</linearGradient>
			<polygon class="st9" points="673,358.6 638.3,597.7 428.8,579.4 395.1,398.9 			"/>
			<polygon class="st10" points="586.3,383.1 673,358.6 642.4,311.7 533.8,259.7 542.5,351.5 			"/>
			<polygon class="st11" points="498.1,221 647,230.1 678.6,352.5 673,358.6 522.6,254.6 			"/>
			<polygon class="st12" points="518.1,45.2 462.9,163.9 508.3,223.5 634.2,251 610.3,97.1 			"/>
			<polygon class="st13" points="519.5,68.5 452.7,198 430.3,206.7 395.1,34.4 461.4,-12.5 524.6,23.7 			"/>
			<polygon class="st14" points="420.6,60.9 450.7,221 364,138.4 			"/>
			<polygon class="st15" points="299.8,301.5 358.4,378.5 452.7,201.1 			"/>
			<polygon class="st16" points="289.2,314.6 450.6,212.2 380.3,140.9 			"/>
			<polygon class="st17" points="801.5,528.4 746.4,558 772.4,576.3 811.6,564.6 			"/>
		</g>
	</g>
	<linearGradient id="SVGID_7_" gradientUnits="userSpaceOnUse" x1="1068.8555" y1="65.061" x2="1068.8555" y2="445.0022">
		<stop  offset="0" style="stop-color:#4AA5B4"/>
		<stop  offset="1" style="stop-color:#0E78A4"/>
	</linearGradient>
	<polygon class="st18" points="1219,62.9 918.7,62.9 918.7,95.5 1050.8,95.5 1050.8,447.3 1087,447.3 1087,95.5 1219,95.5 	"/>
</g>
</svg>
