<?xml version="1.0" encoding="utf-8"?>
<!-- Generator: Adobe Illustrator 22.0.1, SVG Export Plug-In . SVG Version: 6.00 Build 0)  -->
<svg version="1.1" id="Layer_1" xmlns="http://www.w3.org/2000/svg" xmlns:xlink="http://www.w3.org/1999/xlink" x="0px" y="0px"
	 viewBox="0 0 1907.7 591.1" enable-background="new 0 0 1907.7 591.1" xml:space="preserve">
<g>
	<g>
		<defs>
			<path id="SVGID_1_" d="M537.8,586.2H60.4c-29.1,0-52.9-23.8-52.9-52.9V55.9c0-29.1,23.8-52.9,52.9-52.9h477.4
				c29.1,0,52.9,23.8,52.9,52.9v477.4C590.7,562.4,566.9,586.2,537.8,586.2z"/>
		</defs>
		<clipPath id="SVGID_2_">
			<use xlink:href="#SVGID_1_"  overflow="visible"/>
		</clipPath>
		<linearGradient id="SVGID_3_" gradientUnits="userSpaceOnUse" x1="7.4381" y1="97.2486" x2="520.6868" y2="97.2486">
			<stop  offset="0" style="stop-color:#579DCA"/>
			<stop  offset="1" style="stop-color:#6EC6FF"/>
		</linearGradient>
		<polygon clip-path="url(#SVGID_2_)" fill="url(#SVGID_3_)" points="520.7,-159.4 7.4,-159.4 7.4,353.9 		"/>
		<linearGradient id="SVGID_4_" gradientUnits="userSpaceOnUse" x1="279.8405" y1="233.1192" x2="604.2778" y2="233.1192">
			<stop  offset="0" style="stop-color:#01944A"/>
			<stop  offset="1" style="stop-color:#01BB41"/>
		</linearGradient>
		<polygon clip-path="url(#SVGID_2_)" fill="url(#SVGID_4_)" points="279.8,233.1 604.3,557.6 604.3,-91.3 		"/>
		<linearGradient id="SVGID_5_" gradientUnits="userSpaceOnUse" x1="-123.8343" y1="468.3604" x2="525.0397" y2="468.3604">
			<stop  offset="0" style="stop-color:#1C43D5"/>
			<stop  offset="1" style="stop-color:#0AA5FF"/>
		</linearGradient>
		<polygon clip-path="url(#SVGID_2_)" fill="url(#SVGID_5_)" points="200.6,306.1 -123.8,630.6 525,630.6 		"/>
	</g>
	<g>
		<path fill="#FFFFFF" d="M1039.2,486.9l-105-169.8l-29,33.5v136.3h-88.6V86.1h88.6v178.8l141.9-178.8H1151L998.9,264.9l151,222
			H1039.2z"/>
		<path fill="#FFFFFF" d="M1394,492.6c-28.4,0-42.6-17.6-47.1-41.4c-25,29.5-48.3,44.3-89.7,44.3c-53.4,0-89.7-38.6-89.7-90.3
			c0-82.3,86.3-98.2,153.3-98.2c12.5,0,19.9-0.6,19.9-10.8v-19.9c0-21.6-13.6-42-55.6-42c-35.2,0-61.9,16.5-74.9,27.8l-27.8-56.8
			c33.5-21.6,70.4-31.2,122.6-31.2c42.6,0,111.3,15.3,111.3,102.8v139.7c0,10.8,1.1,19.9,10.8,19.9c3.4,0,9.7-1.7,13.1-2.8l4.5,51.7
			C1432.6,488,1412.7,492.6,1394,492.6z M1340.1,356.3c-8.5-0.6-17-0.6-23.8-0.6c-27.8,0-69.8,6.8-69.8,43.1c0,22.1,15.9,38,38,38
			c17.6,0,32.4-5.7,42.6-16.5c9.1-9.7,13.1-21,13.1-35.8V356.3z"/>
		<path fill="#FFFFFF" d="M1553.5,496.6c-38,0-72.1-13.1-89.1-23.3l24.4-58.5c19.3,13.6,47.1,22.7,71,22.7c21,0,46.6-7.4,46.6-31.2
			c0-19.9-16.5-26.1-44.9-36.9l-25-9.7c-39.2-15.3-65.3-38.6-65.3-82.9c0-57.3,48.3-102.8,119.2-102.8c38,0,65.9,11.9,81.8,19.9
			l-24.4,58.5c-17.6-11.4-42-18.2-61.3-18.2c-32.4,0-42,16.5-42,30.1c0,15.9,14.8,25,35.8,32.4l26.7,9.7
			c43.1,15.9,73.8,39.2,73.8,89.7C1680.7,455.1,1633,496.6,1553.5,496.6z"/>
		<path fill="#FFFFFF" d="M1831.7,496.6c-53.9,0-87.4-29-87.4-87.4V246.2h-50.5v-56.8h50.5v-61.3l79.5-25.5v86.9h69.3v56.8h-69.3
			v153.3c0,30.1,16.5,36.9,34.6,36.9c16.5,0,27.8-4,34.6-6.2l7.9,58.5C1886.2,492.6,1858.4,496.6,1831.7,496.6z"/>
	</g>
</g>
</svg>
