<?xml version="1.0" encoding="utf-8"?>
<!-- Generator: Adobe Illustrator 22.0.1, SVG Export Plug-In . SVG Version: 6.00 Build 0)  -->
<svg version="1.1" id="Layer_1" xmlns="http://www.w3.org/2000/svg" xmlns:xlink="http://www.w3.org/1999/xlink" x="0px" y="0px"
	 viewBox="0 0 1907.7 591.1" style="enable-background:new 0 0 1907.7 591.1;" xml:space="preserve">
<style type="text/css">
	.st0{clip-path:url(#SVGID_2_);fill:url(#SVGID_3_);}
	.st1{clip-path:url(#SVGID_2_);fill:url(#SVGID_4_);}
	.st2{clip-path:url(#SVGID_2_);fill:url(#SVGID_5_);}
	.st3{fill:#444444;}
</style>
<g>
	<g>
		<defs>
			<path id="SVGID_1_" d="M532.4,588.3H53.2C23.9,588.3,0,564.4,0,535.2V55.9C0,26.7,23.9,2.8,53.2,2.8h479.2
				c29.2,0,53.2,23.9,53.2,53.2v479.2C585.5,564.4,561.6,588.3,532.4,588.3z"/>
		</defs>
		<clipPath id="SVGID_2_">
			<use xlink:href="#SVGID_1_"  style="overflow:visible;"/>
		</clipPath>
		<linearGradient id="SVGID_3_" gradientUnits="userSpaceOnUse" x1="0" y1="97.4736" x2="515.2377" y2="97.4736">
			<stop  offset="0" style="stop-color:#579DCA"/>
			<stop  offset="1" style="stop-color:#6EC6FF"/>
		</linearGradient>
		<polygon class="st0" points="515.2,-160.1 0,-160.1 0,355.1 		"/>
		<linearGradient id="SVGID_4_" gradientUnits="userSpaceOnUse" x1="273.458" y1="233.8707" x2="599.1525" y2="233.8707">
			<stop  offset="0" style="stop-color:#01944A"/>
			<stop  offset="1" style="stop-color:#01BB41"/>
		</linearGradient>
		<polygon class="st1" points="273.5,233.9 599.2,559.6 599.2,-91.8 		"/>
		<linearGradient id="SVGID_5_" gradientUnits="userSpaceOnUse" x1="-131.7811" y1="470.0235" x2="519.6074" y2="470.0235">
			<stop  offset="0" style="stop-color:#1C43D5"/>
			<stop  offset="1" style="stop-color:#0AA5FF"/>
		</linearGradient>
		<polygon class="st2" points="193.9,307.2 -131.8,632.9 519.6,632.9 		"/>
	</g>
	<g>
		<path class="st3" d="M1035.7,488.6L930.3,318.2l-29.1,33.6v136.8h-88.9V86.3h88.9v179.5l142.5-179.5H1148L995.3,265.8l151.6,222.8
			H1035.7z"/>
		<path class="st3" d="M1391.9,494.3c-28.5,0-42.7-17.7-47.3-41.6c-25.1,29.6-48.4,44.5-90.1,44.5c-53.6,0-90.1-38.8-90.1-90.6
			c0-82.6,86.6-98.6,153.9-98.6c12.5,0,19.9-0.6,19.9-10.8v-19.9c0-21.7-13.7-42.2-55.9-42.2c-35.3,0-62.1,16.5-75.2,27.9l-27.9-57
			c33.6-21.7,70.7-31.3,123.1-31.3c42.7,0,111.7,15.4,111.7,103.2V418c0,10.8,1.1,19.9,10.8,19.9c3.4,0,9.7-1.7,13.1-2.8l4.6,51.9
			C1430.7,489.8,1410.8,494.3,1391.9,494.3z M1337.8,357.6c-8.5-0.6-17.1-0.6-23.9-0.6c-27.9,0-70.1,6.8-70.1,43.3
			c0,22.2,16,38.2,38.2,38.2c17.7,0,32.5-5.7,42.7-16.5c9.1-9.7,13.1-21.1,13.1-35.9V357.6z"/>
		<path class="st3" d="M1552.1,498.3c-38.2,0-72.4-13.1-89.5-23.4l24.5-58.7c19.4,13.7,47.3,22.8,71.2,22.8
			c21.1,0,46.7-7.4,46.7-31.3c0-19.9-16.5-26.2-45-37L1535,361c-39.3-15.4-65.5-38.8-65.5-83.2c0-57.6,48.4-103.2,119.7-103.2
			c38.2,0,66.1,12,82.1,19.9l-24.5,58.7c-17.7-11.4-42.2-18.2-61.6-18.2c-32.5,0-42.2,16.5-42.2,30.2c0,16,14.8,25.1,35.9,32.5
			l26.8,9.7c43.3,16,74.1,39.3,74.1,90.1C1679.8,456.7,1631.9,498.3,1552.1,498.3z"/>
		<path class="st3" d="M1831.4,498.3c-54.1,0-87.8-29.1-87.8-87.8V247h-50.7v-57h50.7v-61.6l79.8-25.6V190h69.5v57h-69.5v153.9
			c0,30.2,16.5,37,34.8,37c16.5,0,27.9-4,34.8-6.3l8,58.7C1886.1,494.3,1858.2,498.3,1831.4,498.3z"/>
	</g>
</g>
</svg>
