<?xml version="1.0" encoding="UTF-8" ?>
<!DOCTYPE svg PUBLIC "-//W3C//DTD SVG 1.1//EN" "http://www.w3.org/Graphics/SVG/1.1/DTD/svg11.dtd">
<svg width="262pt" height="214pt" viewBox="0 0 836 684" version="1.1" xmlns="http://www.w3.org/2000/svg">
<g id="#ffffffff">
</g>
<g id="#9fd067ff">
<path fill="#9fd067" opacity="1.00" d=" M 353.48 10.49 C 360.19 5.35 368.29 1.18 376.98 1.67 C 391.52 1.96 403.87 13.37 408.70 26.55 C 411.73 34.00 410.67 42.19 410.83 50.02 C 410.73 92.79 411.05 135.56 410.70 178.33 C 399.38 157.33 388.23 136.20 376.75 115.26 C 366.60 95.38 355.62 75.93 345.12 56.22 C 343.45 52.86 341.92 49.40 340.79 45.82 C 340.38 41.90 340.49 37.93 340.66 33.99 C 342.16 25.02 346.80 16.65 353.48 10.49 Z" />
<path fill="#9fd067" opacity="1.00" d=" M 449.60 3.82 C 455.76 1.70 462.46 1.76 468.87 2.48 C 482.63 5.55 494.21 17.21 496.85 31.11 C 498.87 39.65 495.63 48.29 491.92 55.88 C 483.98 70.36 476.41 85.02 468.29 99.40 C 456.97 121.25 444.70 142.57 433.27 164.36 C 430.79 168.98 428.41 173.66 425.56 178.06 C 425.41 133.03 425.56 88.00 425.50 42.97 C 425.59 38.57 425.13 34.04 426.63 29.81 C 429.47 18.08 438.49 8.33 449.60 3.82 Z" />
<path fill="#9fd067" opacity="1.00" d=" M 268.74 68.81 C 274.22 57.71 285.49 49.41 297.94 48.39 C 305.47 47.48 312.89 50.14 319.41 53.65 C 323.50 57.03 327.39 60.85 330.27 65.34 C 353.34 105.88 376.97 146.09 399.99 186.67 C 376.08 171.94 351.46 158.24 327.44 143.62 C 312.64 134.76 297.63 126.22 282.84 117.32 C 275.18 111.60 268.44 103.93 266.20 94.41 C 264.27 85.94 264.60 76.60 268.74 68.81 Z" />
<path fill="#9fd067" opacity="1.00" d=" M 506.53 64.59 C 512.19 55.50 522.25 49.04 533.01 48.40 C 550.03 46.97 567.22 59.51 570.58 76.35 C 571.08 81.65 571.07 87.03 570.55 92.33 C 568.45 102.74 561.32 111.86 552.16 117.08 C 526.97 132.29 501.67 147.27 476.50 162.52 C 463.25 170.10 450.46 178.50 437.07 185.83 C 443.87 172.84 451.74 160.44 458.79 147.58 C 474.91 120.03 490.79 92.35 506.53 64.59 Z" />
<path fill="#9fd067" opacity="1.00" d=" M 223.12 160.02 C 222.52 141.98 238.79 124.99 256.96 125.54 C 262.85 125.11 268.37 127.73 273.61 130.07 C 315.19 152.42 356.59 175.08 398.06 197.62 C 382.05 198.21 366.02 197.82 350.00 197.93 C 318.01 197.89 286.01 198.02 254.02 197.87 C 246.79 198.30 240.51 194.20 234.94 190.13 C 226.69 182.56 222.43 171.14 223.12 160.02 Z" />
<path fill="#9fd067" opacity="1.00" d=" M 563.91 129.11 C 571.48 125.93 580.07 124.51 588.13 126.62 C 597.33 128.72 605.41 135.29 609.40 143.85 C 617.99 160.53 612.75 183.70 596.40 193.64 C 591.83 196.59 586.45 198.05 581.01 197.87 C 537.34 197.95 493.67 197.85 450.00 197.92 C 446.19 197.94 442.38 197.82 438.58 197.62 C 458.53 186.10 479.09 175.69 499.17 164.39 C 516.48 155.27 533.47 145.57 550.81 136.53 C 555.03 133.79 559.67 131.82 563.91 129.11 Z" />
</g>
<g id="#07557fff">
<path fill="#07557f" opacity="1.00" d=" M 1.98 230.38 C 279.33 230.42 556.69 230.33 834.05 230.42 C 834.06 235.01 834.00 239.60 834.17 244.19 C 556.74 244.25 279.32 244.22 1.90 244.20 C 2.00 239.59 1.95 234.98 1.98 230.38 Z" />
<path fill="#07557f" opacity="1.00" d=" M 18.56 282.66 C 28.71 282.60 38.85 282.76 49.00 282.58 C 62.61 327.99 76.25 373.39 89.57 418.88 C 92.28 418.95 92.06 415.60 92.82 413.78 C 103.38 377.70 114.13 341.68 124.70 305.60 C 126.82 297.97 129.59 290.50 131.14 282.73 C 141.64 282.55 152.15 282.78 162.65 282.59 C 162.79 363.73 162.67 444.87 162.71 526.00 C 162.68 532.70 162.83 539.40 162.60 546.10 C 149.98 546.08 137.36 546.00 124.75 546.16 C 124.89 516.09 124.75 486.03 124.82 455.97 C 124.64 445.14 125.19 434.29 124.33 423.49 C 115.05 455.92 106.87 488.66 97.95 521.19 C 93.20 520.97 88.44 521.27 83.69 521.03 C 82.41 520.58 82.56 518.92 82.10 517.88 C 74.89 490.20 67.40 462.59 60.10 434.93 C 58.97 431.23 58.32 427.37 56.71 423.84 C 56.12 429.53 56.46 435.26 56.39 440.98 C 56.31 476.01 56.46 511.05 56.26 546.08 C 43.70 546.06 31.14 546.10 18.58 546.09 C 18.62 458.28 18.65 370.47 18.56 282.66 Z" />
<path fill="#07557f" opacity="1.00" d=" M 218.89 282.60 C 248.28 282.71 277.68 282.72 307.08 282.60 C 307.05 293.44 306.97 304.29 307.12 315.14 C 290.29 314.99 273.45 315.11 256.61 315.08 C 256.64 341.69 256.72 368.30 256.57 394.91 C 272.32 395.00 288.08 394.84 303.83 394.98 C 303.83 405.82 303.75 416.66 303.87 427.50 C 288.12 427.55 272.37 427.40 256.62 427.56 C 256.68 455.84 256.63 484.12 256.64 512.40 C 273.74 512.55 290.83 512.53 307.93 512.41 C 308.23 523.64 307.97 534.89 308.08 546.13 C 278.35 546.02 248.62 546.07 218.89 546.11 C 218.96 458.27 218.96 370.43 218.89 282.60 Z" />
<path fill="#07557f" opacity="1.00" d=" M 363.16 282.64 C 399.87 282.66 436.58 282.70 473.28 282.62 C 473.22 293.47 473.24 304.31 473.25 315.16 C 461.40 314.97 449.55 315.12 437.70 315.07 C 437.70 392.09 437.77 469.11 437.66 546.13 C 425.09 546.02 412.51 546.09 399.94 546.08 C 399.88 469.08 399.97 392.09 399.90 315.09 C 387.67 315.11 375.45 315.00 363.22 315.13 C 363.18 304.30 363.26 293.47 363.16 282.64 Z" />
<path fill="#07557f" opacity="1.00" d=" M 529.80 282.66 C 558.87 282.70 587.93 282.62 617.00 282.70 C 623.75 282.71 631.15 283.86 636.14 288.82 C 641.13 293.83 642.89 301.16 642.74 308.05 C 642.73 340.03 642.71 372.01 642.75 404.00 C 642.99 412.87 637.71 421.59 629.85 425.66 C 625.53 427.79 620.60 427.54 615.93 427.48 C 616.80 434.85 619.34 441.92 620.78 449.21 C 628.73 481.50 636.59 513.82 644.37 546.16 C 631.74 545.99 619.11 546.08 606.48 546.10 C 595.20 500.05 584.01 453.99 572.85 407.92 C 572.54 403.25 576.15 399.39 577.37 395.00 C 586.51 394.78 595.66 395.06 604.81 394.87 C 605.02 368.30 604.93 341.72 604.86 315.15 C 592.41 315.05 579.96 314.96 567.51 315.20 C 567.50 392.16 567.40 469.12 567.56 546.07 C 554.98 546.10 542.40 546.05 529.83 546.11 C 529.76 458.29 529.82 370.47 529.80 282.66 Z" />
<path fill="#07557f" opacity="1.00" d=" M 717.16 283.17 C 720.38 282.45 723.71 282.68 726.99 282.65 C 749.63 282.68 772.27 282.63 794.91 282.68 C 807.01 282.41 819.33 293.46 817.75 306.06 C 817.69 378.70 817.77 451.34 817.71 523.98 C 817.84 536.78 804.93 546.04 792.96 546.09 C 768.98 546.04 745.00 546.12 721.02 546.04 C 709.69 545.15 698.70 534.87 699.60 523.04 C 699.65 449.37 699.64 375.70 699.61 302.03 C 700.12 292.68 708.59 285.46 717.16 283.17 M 737.43 315.25 C 737.17 380.88 737.45 446.51 737.28 512.14 C 751.48 512.45 765.69 512.27 779.89 512.22 C 779.89 446.53 779.98 380.85 779.85 315.17 C 765.71 315.10 751.56 314.93 737.43 315.25 Z" />
<path fill="#07557f" opacity="1.00" d=" M 2.93 584.26 C 279.74 584.37 556.56 584.33 833.37 584.28 C 833.43 588.88 833.38 593.48 833.43 598.08 C 564.31 598.02 295.19 598.08 26.07 598.06 C 18.32 597.98 10.57 598.22 2.83 597.92 C 2.94 593.36 2.83 588.81 2.93 584.26 Z" />
<path fill="#07557f" opacity="1.00" d=" M 2.91 636.91 C 9.94 636.98 16.98 636.92 24.01 636.92 C 27.36 636.90 31.25 637.54 33.32 640.50 C 35.90 644.41 35.83 649.42 35.21 653.90 C 34.64 657.50 31.92 660.40 28.50 661.55 C 30.67 666.63 33.59 671.34 35.96 676.32 C 32.65 676.34 29.34 676.33 26.03 676.32 C 23.42 671.70 21.11 666.91 18.57 662.26 C 16.41 662.27 14.26 662.26 12.11 662.28 C 12.04 666.96 12.05 671.65 12.08 676.33 C 9.10 676.32 6.11 676.32 3.13 676.36 C 2.73 663.21 3.10 650.06 2.91 636.91 M 12.06 645.13 C 12.04 648.28 12.06 651.44 12.13 654.60 C 16.14 654.60 20.15 654.58 24.15 654.37 C 26.78 652.29 26.54 648.96 25.65 646.09 C 21.38 644.19 16.58 645.35 12.06 645.13 Z" />
<path fill="#07557f" opacity="1.00" d=" M 42.29 650.53 C 43.31 644.72 46.83 638.31 53.21 637.33 C 59.52 636.45 65.95 637.15 72.31 636.97 C 72.27 639.63 72.23 642.30 72.20 644.97 C 67.42 645.22 62.61 644.76 57.85 645.28 C 54.24 645.88 52.47 649.49 51.88 652.76 C 58.52 652.93 65.16 652.72 71.79 652.87 C 71.75 655.39 71.73 657.92 71.74 660.45 C 65.16 660.47 58.58 660.50 52.00 660.46 C 52.44 663.74 54.20 667.61 57.88 668.09 C 62.64 668.44 67.42 668.11 72.18 668.24 C 72.21 670.93 72.22 673.62 72.20 676.32 C 66.49 676.23 60.77 676.53 55.07 676.21 C 50.90 676.06 46.92 673.71 44.89 670.04 C 41.55 664.17 41.41 657.06 42.29 650.53 Z" />
<path fill="#07557f" opacity="1.00" d=" M 78.65 636.96 C 89.70 636.94 100.76 636.96 111.82 636.96 C 111.75 639.65 111.73 642.34 111.75 645.04 C 107.86 645.05 103.96 645.02 100.07 645.06 C 100.03 655.48 100.01 665.90 100.08 676.32 C 96.97 676.31 93.86 676.32 90.75 676.35 C 90.84 665.93 90.77 655.51 90.72 645.10 C 86.71 645.03 82.70 645.01 78.69 645.11 C 78.69 642.39 78.69 639.67 78.65 636.96 Z" />
<path fill="#07557f" opacity="1.00" d=" M 124.40 636.94 C 127.04 636.92 129.67 636.92 132.31 636.92 C 137.55 650.07 142.92 663.17 148.10 676.34 C 145.04 676.31 141.98 676.32 138.92 676.41 C 137.54 673.76 136.50 670.96 135.74 668.08 C 130.94 668.02 126.14 668.08 121.34 668.01 C 120.22 670.80 119.15 673.61 118.04 676.42 C 114.89 676.32 111.75 676.32 108.60 676.32 C 113.95 663.23 119.20 650.09 124.40 636.94 M 124.08 660.75 C 126.97 660.82 129.87 660.82 132.76 660.73 C 131.42 657.11 130.24 653.42 128.46 649.98 C 126.42 653.30 125.36 657.09 124.08 660.75 Z" />
<path fill="#07557f" opacity="1.00" d=" M 154.68 636.89 C 157.62 636.93 160.56 636.94 163.51 636.94 C 163.49 650.07 163.47 663.20 163.51 676.34 C 160.58 676.33 157.65 676.32 154.72 676.31 C 154.72 663.17 154.80 650.03 154.68 636.89 Z" />
<path fill="#07557f" opacity="1.00" d=" M 170.94 636.91 C 174.07 636.92 177.19 636.93 180.32 636.92 C 180.36 644.97 180.28 653.03 180.31 661.09 C 180.03 663.49 181.56 665.44 182.65 667.42 C 187.41 668.78 192.40 668.05 197.28 668.24 C 197.31 670.93 197.32 673.62 197.33 676.32 C 192.22 676.25 187.10 676.52 182.00 676.18 C 177.84 675.94 173.98 673.07 172.64 669.11 C 170.73 663.59 171.30 657.66 171.22 651.93 C 171.28 646.91 170.89 641.91 170.94 636.91 Z" />
<path fill="#07557f" opacity="1.00" d=" M 225.70 642.75 C 227.05 638.90 231.10 636.90 235.00 636.99 C 243.15 636.87 251.30 636.99 259.46 636.95 C 259.42 639.65 259.42 642.36 259.45 645.06 C 251.19 645.27 242.88 644.55 234.66 645.52 C 233.52 648.01 233.33 651.39 236.41 652.48 C 241.93 653.18 247.53 652.38 253.07 652.93 C 257.17 653.44 260.54 656.97 261.12 661.04 C 261.76 665.46 261.53 670.73 257.92 673.90 C 255.92 676.13 252.70 676.11 249.95 676.31 C 241.91 676.37 233.87 676.38 225.83 676.26 C 225.91 673.44 226.07 670.63 226.37 667.83 C 234.77 668.29 243.31 668.76 251.65 667.61 C 251.90 665.55 251.91 663.48 251.61 661.43 C 244.89 659.57 237.81 661.56 231.07 660.04 C 224.36 657.50 223.34 648.66 225.70 642.75 Z" />
<path fill="#07557f" opacity="1.00" d=" M 264.91 637.15 C 276.05 636.68 287.20 637.10 298.35 636.92 C 298.30 639.55 298.31 642.18 298.39 644.82 C 294.34 645.10 290.29 645.09 286.24 645.04 C 286.20 655.47 286.23 665.90 286.26 676.33 C 283.32 676.32 280.38 676.33 277.45 676.39 C 277.32 666.00 277.40 655.61 277.44 645.22 C 273.24 644.99 269.03 645.10 264.83 644.83 C 265.53 642.31 265.26 639.69 264.91 637.15 Z" />
<path fill="#07557f" opacity="1.00" d=" M 316.30 637.31 C 322.85 636.46 330.57 636.70 335.55 641.68 C 340.11 646.95 340.54 654.42 339.87 661.05 C 339.33 665.94 337.28 671.21 332.78 673.74 C 328.15 676.76 322.31 676.47 317.02 676.08 C 311.47 675.72 305.96 672.23 304.14 666.83 C 302.00 660.20 301.93 652.78 304.26 646.20 C 306.04 641.15 311.14 637.94 316.30 637.31 M 312.66 649.84 C 311.43 655.19 311.54 661.04 313.64 666.18 C 318.49 670.09 327.96 670.04 330.10 663.20 C 331.37 657.72 331.50 651.51 328.36 646.60 C 323.51 643.61 314.66 643.31 312.66 649.84 Z" />
<path fill="#07557f" opacity="1.00" d=" M 347.46 636.96 C 354.68 636.97 361.91 636.87 369.14 636.99 C 372.49 637.12 376.58 637.69 378.14 641.15 C 381.59 647.93 380.89 658.78 372.71 661.73 C 375.26 666.62 377.84 671.49 380.47 676.34 C 377.08 676.32 373.69 676.29 370.29 676.36 C 367.90 671.69 365.45 667.05 363.11 662.37 C 360.85 662.28 358.59 662.25 356.33 662.26 C 356.21 666.94 356.22 671.63 356.30 676.32 C 353.38 676.30 350.48 676.31 347.57 676.40 C 347.32 663.25 347.56 650.10 347.46 636.96 M 356.22 645.15 C 356.20 648.29 356.17 651.43 356.33 654.58 C 360.27 654.63 364.22 654.58 368.17 654.57 C 371.49 652.23 371.87 647.18 368.18 645.01 C 364.19 645.06 360.20 644.99 356.22 645.15 Z" />
<path fill="#07557f" opacity="1.00" d=" M 387.44 647.57 C 388.72 642.53 392.64 637.90 398.04 637.27 C 404.20 636.59 410.46 637.00 416.66 637.09 C 416.67 639.68 416.67 642.27 416.66 644.87 C 412.05 645.23 407.44 644.91 402.83 645.13 C 399.02 645.47 396.61 649.21 396.76 652.84 C 403.20 652.81 409.65 652.83 416.09 652.84 C 416.07 655.39 416.00 657.95 415.92 660.52 C 409.51 660.47 403.11 660.47 396.71 660.49 C 396.47 663.51 398.27 665.83 400.30 667.82 C 405.70 668.56 411.16 668.10 416.60 668.26 C 416.64 670.95 416.65 673.64 416.62 676.35 C 410.77 676.21 404.91 676.51 399.07 676.19 C 394.39 676.00 390.28 672.76 388.42 668.57 C 385.67 661.95 385.26 654.42 387.44 647.57 Z" />
<path fill="#07557f" opacity="1.00" d=" M 423.85 641.97 C 425.34 638.43 429.30 636.98 432.91 637.00 C 440.99 636.83 449.07 637.07 457.15 636.87 C 457.09 639.61 457.08 642.36 457.12 645.11 C 449.50 645.07 441.86 644.89 434.25 645.20 C 431.34 645.61 431.43 648.87 431.68 651.12 C 436.54 654.23 442.61 652.15 448.02 652.74 C 452.26 652.35 456.76 654.76 458.20 658.88 C 459.58 662.67 459.50 667.04 458.03 670.81 C 456.56 674.31 452.62 676.25 448.96 676.28 C 440.61 676.45 432.27 676.28 423.93 676.30 C 423.90 673.60 423.90 670.91 423.92 668.22 C 430.63 668.23 437.33 668.22 444.04 668.26 C 445.93 668.33 447.79 667.89 449.61 667.40 C 449.85 665.22 450.66 662.20 448.06 661.14 C 441.59 659.68 434.70 661.72 428.26 659.85 C 421.80 656.82 420.87 647.78 423.85 641.97 Z" />
<path fill="#07557f" opacity="1.00" d=" M 491.79 641.81 C 494.40 638.40 498.80 636.84 503.00 636.93 C 509.73 636.94 516.46 636.97 523.20 636.92 C 523.13 639.65 523.13 642.38 523.18 645.12 C 517.10 645.02 511.01 644.97 504.93 645.10 C 500.91 645.05 497.84 649.03 498.06 652.88 C 498.26 657.77 496.66 664.22 501.60 667.34 C 505.37 669.13 509.84 667.87 513.89 668.21 C 513.94 665.61 513.95 663.02 513.92 660.43 C 511.26 660.46 508.60 660.49 505.94 660.54 C 505.94 657.95 505.90 655.37 505.86 652.80 C 511.64 652.95 517.42 652.83 523.20 652.83 C 523.08 660.64 523.15 668.46 523.19 676.28 C 516.45 676.37 509.71 676.33 502.97 676.36 C 499.43 676.34 495.64 675.54 493.10 672.91 C 489.06 669.13 487.98 663.35 487.90 658.05 C 487.73 652.44 488.31 646.44 491.79 641.81 Z" />
<path fill="#07557f" opacity="1.00" d=" M 530.45 637.11 C 537.63 636.77 544.82 637.02 552.00 636.91 C 555.86 636.78 560.30 638.35 561.77 642.24 C 563.58 647.03 563.52 652.65 561.31 657.30 C 560.20 659.54 557.77 660.54 555.78 661.83 C 558.27 666.69 561.01 671.43 563.46 676.32 C 560.13 676.34 556.79 676.32 553.46 676.32 C 550.96 671.67 548.50 667.00 546.07 662.32 C 543.87 662.26 541.68 662.26 539.49 662.29 C 539.46 666.97 539.46 671.64 539.49 676.32 C 536.48 676.33 533.47 676.32 530.47 676.30 C 530.48 663.23 530.56 650.17 530.45 637.11 M 539.51 645.08 C 539.47 648.24 539.46 651.39 539.52 654.55 C 543.45 654.65 547.40 654.71 551.34 654.41 C 552.07 653.67 552.80 652.94 553.55 652.22 C 553.68 650.89 553.82 649.57 553.96 648.26 C 553.28 647.22 552.61 646.19 551.95 645.16 C 547.80 645.01 543.65 645.03 539.51 645.08 Z" />
<path fill="#07557f" opacity="1.00" d=" M 582.28 637.50 C 588.01 636.44 594.34 636.58 599.59 639.37 C 605.05 642.50 607.06 649.02 607.09 654.99 C 607.15 660.92 606.80 667.81 602.05 672.06 C 597.05 676.91 589.48 676.60 583.04 676.01 C 577.26 675.41 572.36 671.07 570.81 665.52 C 569.41 659.95 569.46 654.03 570.62 648.43 C 571.78 642.82 576.73 638.49 582.28 637.50 M 584.14 645.23 C 581.08 646.19 579.38 649.25 579.24 652.34 C 579.02 656.63 578.36 661.40 580.66 665.29 C 583.29 669.22 588.80 669.35 592.90 668.11 C 597.55 666.06 598.13 660.42 597.94 655.98 C 597.76 652.38 597.52 647.91 594.00 645.90 C 591.01 644.35 587.33 644.40 584.14 645.23 Z" />
<path fill="#07557f" opacity="1.00" d=" M 613.85 637.13 C 616.95 636.94 620.07 636.91 623.19 636.91 C 622.96 645.29 623.14 653.68 623.07 662.07 C 622.30 670.03 636.27 671.19 637.82 663.96 C 638.12 654.96 637.92 645.94 637.92 636.94 C 640.99 636.92 644.07 636.93 647.15 637.04 C 646.90 646.04 647.22 655.05 646.99 664.05 C 646.95 667.68 645.22 671.28 642.12 673.25 C 637.84 676.47 632.15 676.55 627.03 676.15 C 622.23 675.78 617.26 673.21 615.23 668.67 C 614.09 666.29 614.10 663.60 614.10 661.04 C 614.13 653.07 614.18 645.10 613.85 637.13 Z" />
<path fill="#07557f" opacity="1.00" d=" M 654.86 636.90 C 663.68 637.05 672.50 636.86 681.33 636.98 L 679.53 638.46 C 680.51 638.64 681.32 638.09 682.08 637.53 C 686.47 640.02 688.42 645.13 688.13 650.00 C 688.56 655.38 685.80 661.91 679.95 662.93 C 674.60 663.39 669.22 663.01 663.86 663.16 C 663.65 667.54 663.73 671.94 663.81 676.33 C 660.83 676.33 657.85 676.33 654.87 676.35 C 654.92 663.20 654.93 650.05 654.86 636.90 M 663.58 645.17 C 663.57 648.39 663.58 651.61 663.54 654.83 C 667.63 655.21 671.81 655.46 675.89 654.82 C 677.23 654.66 677.66 653.10 678.53 652.29 C 678.57 649.95 678.15 647.68 677.23 645.55 C 672.71 644.78 668.12 645.04 663.58 645.17 Z" />
<path fill="#07557f" opacity="1.00" d=" M 730.06 636.91 C 733.08 636.95 736.11 636.94 739.14 636.92 C 738.91 650.08 739.01 663.26 739.10 676.42 C 736.02 676.37 732.94 676.36 729.87 676.33 C 730.11 663.19 729.72 650.04 730.06 636.91 Z" />
<path fill="#07557f" opacity="1.00" d=" M 746.29 636.89 C 750.11 636.95 753.93 636.94 757.76 636.92 C 761.94 644.95 765.94 653.09 770.40 660.97 C 771.36 652.99 770.64 644.92 770.87 636.91 C 773.82 636.93 776.78 636.93 779.74 636.92 C 779.68 650.07 779.81 663.23 779.69 676.39 C 775.93 676.37 772.19 676.36 768.45 676.34 C 765.74 671.11 762.94 665.94 760.31 660.67 C 758.80 657.98 757.71 654.97 755.53 652.72 C 755.01 660.60 755.34 668.51 755.29 676.40 C 752.26 676.39 749.25 676.36 746.24 676.33 C 746.31 663.18 746.23 650.03 746.29 636.89 Z" />
<path fill="#07557f" opacity="1.00" d=" M 798.34 637.21 C 805.02 636.70 811.72 637.09 818.41 636.90 C 818.39 639.62 818.39 642.34 818.42 645.06 C 813.24 645.16 808.05 644.81 802.89 645.21 C 799.26 645.81 797.67 649.68 797.05 652.88 C 796.56 657.44 796.61 662.62 799.68 666.36 C 801.19 668.13 803.73 668.13 805.88 668.23 C 810.04 668.26 814.20 668.20 818.37 668.19 C 818.38 670.91 818.39 673.63 818.39 676.36 C 812.59 676.28 806.80 676.40 801.00 676.28 C 796.79 676.26 792.53 674.13 790.35 670.47 C 786.81 665.03 786.95 658.21 787.37 651.99 C 787.83 645.63 791.48 638.88 798.09 637.29 C 798.21 637.74 798.45 638.63 798.57 639.07 L 798.34 637.21 Z" />
<path fill="#07557f" opacity="1.00" d=" M 694.66 669.87 C 697.12 669.93 699.59 670.01 702.07 670.12 C 701.87 674.17 703.20 679.87 698.58 681.97 C 698.51 680.13 698.51 678.32 698.51 676.50 C 697.19 676.46 695.88 676.43 694.58 676.40 C 694.60 674.21 694.64 672.04 694.66 669.87 Z" />
<path fill="#07557f" opacity="1.00" d=" M 825.48 670.15 C 827.91 670.03 830.36 669.93 832.81 669.86 C 832.89 672.02 832.91 674.19 832.87 676.37 C 830.42 676.33 827.98 676.32 825.54 676.33 C 825.51 674.26 825.50 672.20 825.48 670.15 Z" />
</g>
</svg>
