<svg xmlns="http://www.w3.org/2000/svg" width="1055.482" height="1145.478" viewBox="0 0 1055.482 1145.478">
  <g id="phone" transform="translate(-3505.115 -2802.841)">
    <g id="Group_7311" data-name="Group 7311" transform="matrix(0.891, -0.454, 0.454, 0.891, -1216.303, 1999.537)">
      <g id="Group_7304" data-name="Group 7304" transform="translate(3868.531 2938.01)">
        <rect id="Rectangle_202" data-name="Rectangle 202" width="108.942" height="38.685" transform="translate(12.636 72.243) rotate(-18.736)" fill="#a0a0a0"/>
        <g id="Group_7303" data-name="Group 7303" transform="translate(0.005 0.004)">
          <path id="Path_9772" data-name="Path 9772" d="M3855.24,3033.206l30.488-51.085-55.536-22.778Z" transform="translate(-3830.192 -2924.352)" fill="#c5c5c5"/>
          <path id="Path_9773" data-name="Path 9773" d="M3929.927,3011.875l-55.27-21.994,30.218-51.868Z" transform="translate(-3801.715 -2938.012)" fill="#c5c5c5"/>
        </g>
        <path id="Path_9774" data-name="Path 9774" d="M3933.354,2938.01l2.415,7.106-37.288,59-65.881-24.012-2.412-7.1Z" transform="translate(-3830.188 -2938.01)" fill="#e5e5e5"/>
      </g>
      <g id="Group_7306" data-name="Group 7306" transform="translate(3842.815 3125.908)">
        <rect id="Rectangle_203" data-name="Rectangle 203" width="57.279" height="161.303" transform="translate(0 110.623) rotate(-73.261)" fill="#a0a0a0"/>
        <g id="Group_7305" data-name="Group 7305" transform="translate(0.007 0.004)">
          <path id="Path_9775" data-name="Path 9775" d="M3814.516,3163.142l80.658-35.4-47.393-75.186Z" transform="translate(-3814.516 -3052.555)" fill="#c5c5c5"/>
          <path id="Path_9776" data-name="Path 9776" d="M3927.315,3191.46l-47.744-74.011,81-36.576Z" transform="translate(-3772.854 -3034.42)" fill="#c5c5c5"/>
        </g>
        <path id="Path_9777" data-name="Path 9777" d="M3990.5,3099l-3.2,10.641-95.66,39.106-58.805-85.562,3.2-10.637Z" transform="translate(-3802.772 -3052.552)" fill="#e5e5e5"/>
      </g>
      <g id="Group_7308" data-name="Group 7308" transform="translate(3770.318 3000.128)">
        <rect id="Rectangle_204" data-name="Rectangle 204" width="55.677" height="156.799" transform="translate(0 105.111) rotate(-69.402)" fill="#d6d6d6"/>
        <g id="Group_7307" data-name="Group 7307" transform="translate(0.009 0.006)">
          <path id="Path_9778" data-name="Path 9778" d="M3770.324,3080.954l80.542-29.055-41.045-76.019Z" transform="translate(-3770.324 -2975.881)" fill="#f8f8f8"/>
          <path id="Path_9779" data-name="Path 9779" d="M3875.978,3114.584l-41.461-74.911,80.956-30.165Z" transform="translate(-3729.213 -2954.345)" fill="#f8f8f8"/>
        </g>
        <path id="Path_9780" data-name="Path 9780" d="M3942.656,3031.04l-3.8,10.107-95.336,31.668-51.439-86.842,3.8-10.1Z" transform="translate(-3756.377 -2975.877)" fill="#fff"/>
      </g>
      <g id="Group_7310" data-name="Group 7310" transform="translate(3966.173 3330.703) rotate(-60)">
        <rect id="Rectangle_205" data-name="Rectangle 205" width="35.88" height="101.047" transform="translate(0 67.738) rotate(-69.402)" fill="#d6d6d6"/>
        <g id="Group_7309" data-name="Group 7309" transform="translate(0.006 0.004)">
          <path id="Path_9781" data-name="Path 9781" d="M0,67.713,51.9,48.99,25.453,0Z" transform="translate(0 0)" fill="#f8f8f8"/>
          <path id="Path_9782" data-name="Path 9782" d="M26.719,67.716,0,19.44,52.171,0Z" transform="translate(67.862 35.549)" fill="#f8f8f8"/>
        </g>
        <path id="Path_9783" data-name="Path 9783" d="M97.034,35.548l-2.446,6.514L33.15,62.471,0,6.507,2.449,0Z" transform="translate(23.011 0)" fill="#fff"/>
      </g>
    </g>
    <g id="Group_7324" data-name="Group 7324" transform="translate(-165.562 -134.554)">
      <path id="Path_9784" data-name="Path 9784" d="M4382.156,3383.156l.438-.674c11.945-18.474,3.953-44.882-17.851-58.986L4104.42,3155.14c-21.808-14.1-49.168-10.559-61.116,7.915l-.436.674c-11.946,18.473-3.956,44.881,17.853,58.982l260.323,168.359C4342.847,3405.171,4370.21,3401.629,4382.156,3383.156Z" transform="translate(16.165 109.011)" fill="#eec7aa"/>
      <path id="Path_9785" data-name="Path 9785" d="M4150.021,3299.686l.558-.559c15.249-15.3,15.367-39.908.262-54.969l-42.073-41.3c-15.105-15.062-39.714-14.875-54.964.421l-.559.558c-15.249,15.3-15.364,39.9-.259,54.97l42.069,41.3C4110.164,3315.168,4134.769,3314.98,4150.021,3299.686Z" transform="translate(25.081 200.371)" fill="#e4b595"/>
      <path id="Path_9786" data-name="Path 9786" d="M4156.7,3323.726l.516-.618c14.091-16.991,12.036-41.945-4.594-55.74l-46.255-37.755c-16.626-13.793-41.53-11.2-55.622,5.788l-.516.62c-14.093,16.99-12.037,41.944,4.593,55.74l46.254,37.755C4117.706,3343.307,4142.612,3340.718,4156.7,3323.726Z" transform="translate(23.343 259.142)" fill="#e4b595"/>
      <path id="Path_9787" data-name="Path 9787" d="M4149.071,3326.536l.335-.622c9.154-16.878,3.179-37.828-13.344-46.787l-45.85-24.4c-16.523-8.96-37.339-2.542-46.493,14.337l-.335.62c-9.155,16.878-3.181,37.827,13.343,46.788l45.852,24.4C4119.1,3349.832,4139.918,3343.413,4149.071,3326.536Z" transform="translate(19.746 319.665)" fill="#e4b595"/>
      <path id="Path_9788" data-name="Path 9788" d="M4364.683,3589.008l2.979-1.9c36.635-23.334,61.963-45.423,84.172-61.31,34-24.32,46.941-70.656,20.321-145.581l-148-159.711c-70.98-63.093-91.268-36.869-162.665,27.605l-15.775,12.815c-74.925,58.167-79.47,129.532-83.8,154.782-2.959,17.253-3.945,39.434-3.945,39.434,0,12.816,1.512,46.474,23.66,64.08,57.675,45.843,95.037,117.669,144.922,128.162C4263.378,3655.133,4307.345,3625.524,4364.683,3589.008Z" transform="translate(57.917 185.642)" fill="#eec7aa"/>
      <rect id="Rectangle_206" data-name="Rectangle 206" width="246.957" height="304.756" transform="matrix(0.843, -0.537, 0.537, 0.843, 4283.109, 3781.01)" fill="#eec7aa"/>
      <g id="Group_7313" data-name="Group 7313" transform="translate(4246.298 3160.276)">
        <g id="Group_7312" data-name="Group 7312">
          <path id="Path_9789" data-name="Path 9789" d="M4107.995,3114.991h42.745a6.849,6.849,0,1,1,0,13.7h-42.745a6.849,6.849,0,1,1,0-13.7Z" transform="translate(-4101.122 -3114.991)" fill="#606971"/>
        </g>
      </g>
      <g id="Group_7314" data-name="Group 7314" transform="translate(4112.52 3113.055)">
        <path id="Rectangle_207" data-name="Rectangle 207" d="M16.238,0H306.747a16.238,16.238,0,0,1,16.238,16.238V667.51a16.239,16.239,0,0,1-16.239,16.239H16.239A16.239,16.239,0,0,1,0,667.51V16.238A16.238,16.238,0,0,1,16.238,0Z" fill="#3e464e"/>
      </g>
      <g id="Group_7315" data-name="Group 7315" transform="translate(4133.734 3206.465)">
        <rect id="Rectangle_208" data-name="Rectangle 208" width="281.619" height="499.875" fill="#ebeff0"/>
      </g>
      <g id="Group_7317" data-name="Group 7317" transform="translate(4174.595 3376.968)">
        <rect id="Rectangle_209" data-name="Rectangle 209" width="74.151" height="208.805" transform="translate(0 149.546) rotate(-89.939)" fill="#2671ea"/>
        <g id="Group_7316" data-name="Group 7316" transform="translate(0.012 0.018)">
          <path id="Path_9790" data-name="Path 9790" d="M4204.513,3336.257l-86.713-74.048,86.856-75.433Z" transform="translate(-3995.708 -3186.542)" fill="#418fe8"/>
          <path id="Path_9791" data-name="Path 9791" d="M4077.4,3336.19l86.875-73.876-86.721-75.616Z" transform="translate(-4077.401 -3186.698)" fill="#418fe8"/>
        </g>
        <path id="Path_9792" data-name="Path 9792" d="M4077.462,3186.692l-.018,14.384,103.915,84.269,104.895-84.047.006-14.383Z" transform="translate(-4077.297 -3186.692)" fill="#2a4ce5"/>
      </g>
      <g id="Group_7319" data-name="Group 7319" transform="translate(4238.478 3742.394)">
        <g id="Group_7318" data-name="Group 7318">
          <path id="Path_9793" data-name="Path 9793" d="M4107.31,3307.61h54.58c4.816,0,8.776,4.533,8.776,10.085s-3.96,10.112-8.776,10.112h-54.58c-4.82,0-8.775-4.566-8.775-10.112S4102.49,3307.61,4107.31,3307.61Z" transform="translate(-4098.535 -3307.61)" fill="#606971"/>
        </g>
      </g>
      <g id="Group_7320" data-name="Group 7320" transform="translate(4345.481 3760.703)">
        <rect id="Rectangle_210" data-name="Rectangle 210" width="293.623" height="73.673" rx="1.06" transform="translate(0 159.611) rotate(-32.928)" fill="#faf9f8"/>
        <path id="Path_9794" data-name="Path 9794" d="M4211.066,3341.5a11.606,11.606,0,1,0,3.434-16.05A11.6,11.6,0,0,0,4211.066,3341.5Z" transform="translate(-3981.758 -3293.616)" fill="#e5e5e5"/>
      </g>
      <path id="Path_9795" data-name="Path 9795" d="M4213.965,3605.86l260.208-168.521a6.028,6.028,0,0,0,1.746-8.341l-63.6-98.2a6.027,6.027,0,0,0-8.325-1.819L4143.784,3497.5a6.028,6.028,0,0,0-1.745,8.341l63.6,98.207A6.029,6.029,0,0,0,4213.965,3605.86Z" transform="translate(225.933 476.055)" fill="#e5e5e5"/>
      <path id="Path_9796" data-name="Path 9796" d="M4232.692,3484.819l2.511.01c22.436-2.338,36.407-23.583,33.557-44.639l-30.88-228.031c-6.154-33.736-24.882-34.785-47.317-32.445l-.821.084c-25.374,5.255-29.445,35.256-29.548,64.323a64.06,64.06,0,0,0,.532,8.314l24.146,191.738C4187.724,3465.23,4210.255,3487.155,4232.692,3484.819Z" transform="translate(264.626 174.618)" fill="#e4b595"/>
      <path id="Path_9797" data-name="Path 9797" d="M4243.017,3489.285l.825-.107c22.532-2.885,37.916-22.722,34.357-44.3,0,0-41.46-198.68-38.523-233.761,2.71-32.4-26.2-35.219-48.736-32.333l-.825.106c-26.617,6.237-33,47.949-28.69,71.959l34.351,204.587C4199.334,3477.015,4220.484,3492.173,4243.017,3489.285Z" transform="translate(264.62 172.527)" fill="#eec7aa"/>
      <path id="Path_9798" data-name="Path 9798" d="M4187.608,3178.42a18.886,18.886,0,0,1,9.369,1.737,20.914,20.914,0,0,1,12.387,17.375c1.779,16.351,3.977,41.72,2.052,44.487s-10.165,5.494-20.248,1.8-12.188-5.421-14.646-13.427-1.415-38.292-.654-41.246C4176.566,3186.442,4177.876,3179.217,4187.608,3178.42Z" transform="translate(294.535 173.432)" fill="#ece4d9"/>
      <g id="Group_7321" data-name="Group 7321" transform="translate(4066.211 3390.375)">
        <path id="Path_9799" data-name="Path 9799" d="M4163.292,3265.122l.293-.7c7.949-19.23-.668-41.209-19.248-49.094l-51.515-21.373c-18.58-7.885-40.089,1.315-48.04,20.545l-.289.7c-7.951,19.229.666,41.208,19.247,49.094l51.514,21.373C4133.835,3293.548,4155.344,3284.349,4163.292,3265.122Z" transform="translate(-4041.533 -3191.128)" fill="#eec7aa"/>
        <path id="Path_9800" data-name="Path 9800" d="M4065.419,3220.174l.191-.483c5.275-13.25,13.889-22.192,29.486-15.738l13.472,5.58c15.6,6.455,17.571,19.77,12.293,33.016l-.189.486c-5.276,13.247-15.8,21.407-31.4,14.951l-13.473-5.575C4060.207,3245.955,4060.143,3233.419,4065.419,3220.174Z" transform="translate(-3999.596 -3169.531)" fill="#ece4d9"/>
      </g>
      <g id="Group_7322" data-name="Group 7322" transform="translate(4065.074 3480.003)">
        <path id="Path_9801" data-name="Path 9801" d="M4164.836,3295.153l.3-.707c8.076-19.327-.677-41.418-19.551-49.339l-52.327-21.484c-18.873-7.924-40.72,1.32-48.795,20.646l-.3.708c-8.074,19.327.678,41.419,19.551,49.342l52.328,21.481C4134.914,3323.724,4156.76,3314.479,4164.836,3295.153Z" transform="translate(-4041.156 -3220.786)" fill="#eec7aa"/>
        <path id="Path_9802" data-name="Path 9802" d="M4065.975,3249.689l.191-.472c5.195-12.912,13.684-21.631,29.051-15.34l13.277,5.438c15.367,6.295,17.31,19.278,12.112,32.192l-.189.471c-5.2,12.916-15.567,20.871-30.934,14.575l-13.277-5.434C4060.837,3274.825,4060.776,3262.605,4065.975,3249.689Z" transform="translate(-3997.244 -3198.541)" fill="#ece4d9"/>
      </g>
      <g id="Group_7323" data-name="Group 7323" transform="translate(4059.388 3569.351)">
        <path id="Path_9803" data-name="Path 9803" d="M4163.985,3322.119l.275-.653c7.524-17.788-1.861-38.628-20.961-46.549l-52.945-21.509c-19.1-7.921-40.683.078-48.209,17.866l-.274.65c-7.526,17.788,1.861,38.628,20.96,46.55l52.946,21.509C4134.877,3347.9,4156.462,3339.907,4163.985,3322.119Z" transform="translate(-4039.275 -3250.351)" fill="#eec7aa"/>
        <path id="Path_9804" data-name="Path 9804" d="M4065.662,3278.086l.176-.424c4.724-11.6,12.441-19.43,26.413-13.776l12.071,4.88c13.971,5.652,15.738,17.314,11.013,28.913l-.172.422c-4.725,11.6-14.154,18.745-28.128,13.092l-12.069-4.884C4060.993,3300.659,4060.939,3289.686,4065.662,3278.086Z" transform="translate(-3991.617 -3226.782)" fill="#ece4d9"/>
      </g>
      <rect id="Rectangle_211" data-name="Rectangle 211" width="696.831" height="810.444" transform="translate(4029.328 3092.594)" fill="none"/>
    </g>
  </g>
</svg>
