<svg xmlns="http://www.w3.org/2000/svg" width="375.328" height="221.395"><g opacity=".1" fill="#442fd6"><path data-name="Path 8835" d="M322.123 4.47L20.702 85.286A20.276 20.276 0 006.41 110.048l24.433 91.128a20.276 20.276 0 0024.763 14.292l301.42-80.816a20.276 20.276 0 0014.292-24.763l-24.433-91.127A20.276 20.276 0 00322.123 4.47zm-190.98 154.562c-6.823 8.95-16.707 14.752-33.48 19.249a128.191 128.191 0 01-21.425 4.11l-5.563-74.735a124.877 124.877 0 0120.769-7.432c11.109-2.979 20.622-3.196 28.61.033 8.154 3.417 14.306 9.821 17.401 21.366 3.911 14.588.778 28.153-6.312 37.409zm29.945 2.827c-6.099 1.635-11.269-1.535-12.844-7.412-1.84-6.859 1.593-14.085 8.89-16.041 5.989-1.606 11.379 1.505 13.071 7.818 1.955 7.298-1.93 13.708-9.117 15.635zm38.07-11.259l-18.514 4.964-5.849-77.11 18.622-4.992zm24.333-5.473c-6.098 1.636-11.268-1.534-12.844-7.411-1.839-6.859 1.594-14.085 8.89-16.041 5.99-1.606 11.38 1.505 13.072 7.817 1.953 7.298-1.93 13.709-9.118 15.635zm44.28-12.923l-18.622 4.993-2.28-31.14-26.223-39.896 19.93-5.343 8.003 15.48c2.803 5.669 4.53 9.058 6.403 12.992l.22-.06c1.12-4.97 2.217-9.582 3.618-15.677l4.63-18.868 22.219-5.957-20.318 51.79zm31.194-7.312c-6.099 1.635-11.267-1.535-12.843-7.412-1.84-6.859 1.592-14.085 8.889-16.041 5.989-1.606 11.379 1.505 13.071 7.818 1.955 7.297-1.93 13.708-9.117 15.635z"/><path data-name="Path 8836" d="M95.631 114.968a28.264 28.264 0 00-5.11 1.837l3.381 46.137a54.27 54.27 0 005.751-1.192c7.188-1.927 13.507-6.656 16.353-13.022 2.878-6.26 3.381-13.513 1.19-21.682-2.947-10.995-10.891-14.94-21.565-12.078z"/></g></svg>