<svg xmlns="http://www.w3.org/2000/svg" width="189.885" height="176.047"><g opacity=".1"><g data-name="Group 5194"><g data-name="Group 5193"><path data-name="Path 5406" d="M121.358 2.988L8.096 68.38a13.784 13.784 0 00-4.475 4.2l97.064 26.01 6.14-21.22 20.41-76.158a13.785 13.785 0 00-5.877 1.776z" fill="#19abff"/></g></g><g data-name="Group 5196"><g data-name="Group 5195"><path data-name="Path 5407" d="M136.214 3.619l-19.205 71.666 71.666 19.202a13.786 13.786 0 00-1.775-5.874L140.41 8.092a13.782 13.782 0 00-4.196-4.473z" fill="#19abff"/></g></g><g data-name="Group 5198"><g data-name="Group 5197"><path data-name="Path 5408" d="M1.212 81.56a13.785 13.785 0 001.777 5.877l46.489 80.52a13.787 13.787 0 004.199 4.474l19.205-71.666z" fill="#19abff"/></g></g><g data-name="Group 5200"><g data-name="Group 5199"><path data-name="Path 5409" d="M114.603 84.265l-6.141 21.222a4.647 4.647 0 01-5.693 3.286l-20.912-5.603-19.206 71.666a13.784 13.784 0 005.876-1.776l113.266-65.394a13.785 13.785 0 004.474-4.2z" fill="#19abff"/></g></g></g></svg>