<svg xmlns="http://www.w3.org/2000/svg" xmlns:xlink="http://www.w3.org/1999/xlink" viewBox="0 0 1907.7 591.1"><defs><path id="a" d="M532.4 588.3H53.2C23.9 588.3 0 564.4 0 535.2V55.9C0 26.7 23.9 2.8 53.2 2.8h479.2c29.2 0 53.2 23.9 53.2 53.2v479.2c-.1 29.2-24 53.1-53.2 53.1z"/></defs><clipPath id="b"><use xlink:href="#a" overflow="visible"/></clipPath><linearGradient id="c" gradientUnits="userSpaceOnUse" x1="0" y1="97.474" x2="515.238" y2="97.474"><stop offset="0" stop-color="#579dca"/><stop offset="1" stop-color="#6ec6ff"/></linearGradient><path clip-path="url(#b)" fill="url(#c)" d="M515.2-160.1H0v515.2z"/><linearGradient id="d" gradientUnits="userSpaceOnUse" x1="273.458" y1="233.871" x2="599.153" y2="233.871"><stop offset="0" stop-color="#01944a"/><stop offset="1" stop-color="#01bb41"/></linearGradient><path clip-path="url(#b)" fill="url(#d)" d="M273.5 233.9l325.7 325.7V-91.8z"/><linearGradient id="e" gradientUnits="userSpaceOnUse" x1="-131.781" y1="470.024" x2="519.607" y2="470.024"><stop offset="0" stop-color="#1c43d5"/><stop offset="1" stop-color="#0aa5ff"/></linearGradient><path clip-path="url(#b)" fill="url(#e)" d="M193.9 307.2l-325.7 325.7h651.4z"/><path d="M1035.7 488.6L930.3 318.2l-29.1 33.6v136.8h-88.9V86.3h88.9v179.5l142.5-179.5H1148L995.3 265.8l151.6 222.8h-111.2zm356.2 5.7c-28.5 0-42.7-17.7-47.3-41.6-25.1 29.6-48.4 44.5-90.1 44.5-53.6 0-90.1-38.8-90.1-90.6 0-82.6 86.6-98.6 153.9-98.6 12.5 0 19.9-.6 19.9-10.8v-19.9c0-21.7-13.7-42.2-55.9-42.2-35.3 0-62.1 16.5-75.2 27.9l-27.9-57c33.6-21.7 70.7-31.3 123.1-31.3 42.7 0 111.7 15.4 111.7 103.2V418c0 10.8 1.1 19.9 10.8 19.9 3.4 0 9.7-1.7 13.1-2.8l4.6 51.9c-11.8 2.8-31.7 7.3-50.6 7.3zm-54.1-136.7c-8.5-.6-17.1-.6-23.9-.6-27.9 0-70.1 6.8-70.1 43.3 0 22.2 16 38.2 38.2 38.2 17.7 0 32.5-5.7 42.7-16.5 9.1-9.7 13.1-21.1 13.1-35.9v-28.5zm214.3 140.7c-38.2 0-72.4-13.1-89.5-23.4l24.5-58.7c19.4 13.7 47.3 22.8 71.2 22.8 21.1 0 46.7-7.4 46.7-31.3 0-19.9-16.5-26.2-45-37l-25-9.7c-39.3-15.4-65.5-38.8-65.5-83.2 0-57.6 48.4-103.2 119.7-103.2 38.2 0 66.1 12 82.1 19.9l-24.5 58.7c-17.7-11.4-42.2-18.2-61.6-18.2-32.5 0-42.2 16.5-42.2 30.2 0 16 14.8 25.1 35.9 32.5l26.8 9.7c43.3 16 74.1 39.3 74.1 90.1 0 59.2-47.9 100.8-127.7 100.8zm279.3 0c-54.1 0-87.8-29.1-87.8-87.8V247h-50.7v-57h50.7v-61.6l79.8-25.6V190h69.5v57h-69.5v153.9c0 30.2 16.5 37 34.8 37 16.5 0 27.9-4 34.8-6.3l8 58.7c-14.9 4-42.8 8-69.6 8z" fill="#444"/></svg>