<svg xmlns="http://www.w3.org/2000/svg" xmlns:xlink="http://www.w3.org/1999/xlink" viewBox="0 0 1907.7 591.1"><defs><path id="a" d="M537.8 586.2H60.4c-29.1 0-52.9-23.8-52.9-52.9V55.9C7.5 26.8 31.3 3 60.4 3h477.4c29.1 0 52.9 23.8 52.9 52.9v477.4c0 29.1-23.8 52.9-52.9 52.9z"/></defs><clipPath id="b"><use xlink:href="#a" overflow="visible"/></clipPath><linearGradient id="c" gradientUnits="userSpaceOnUse" x1="7.438" y1="97.249" x2="520.687" y2="97.249"><stop offset="0" stop-color="#579dca"/><stop offset="1" stop-color="#6ec6ff"/></linearGradient><path clip-path="url(#b)" fill="url(#c)" d="M520.7-159.4H7.4v513.3z"/><linearGradient id="d" gradientUnits="userSpaceOnUse" x1="279.841" y1="233.119" x2="604.278" y2="233.119"><stop offset="0" stop-color="#01944a"/><stop offset="1" stop-color="#01bb41"/></linearGradient><path clip-path="url(#b)" fill="url(#d)" d="M279.8 233.1l324.5 324.5V-91.3z"/><linearGradient id="e" gradientUnits="userSpaceOnUse" x1="-123.834" y1="468.36" x2="525.04" y2="468.36"><stop offset="0" stop-color="#1c43d5"/><stop offset="1" stop-color="#0aa5ff"/></linearGradient><path clip-path="url(#b)" fill="url(#e)" d="M200.6 306.1l-324.4 324.5H525z"/><path d="M1039.2 486.9l-105-169.8-29 33.5v136.3h-88.6V86.1h88.6v178.8l141.9-178.8H1151L998.9 264.9l151 222h-110.7zm354.8 5.7c-28.4 0-42.6-17.6-47.1-41.4-25 29.5-48.3 44.3-89.7 44.3-53.4 0-89.7-38.6-89.7-90.3 0-82.3 86.3-98.2 153.3-98.2 12.5 0 19.9-.6 19.9-10.8v-19.9c0-21.6-13.6-42-55.6-42-35.2 0-61.9 16.5-74.9 27.8l-27.8-56.8c33.5-21.6 70.4-31.2 122.6-31.2 42.6 0 111.3 15.3 111.3 102.8v139.7c0 10.8 1.1 19.9 10.8 19.9 3.4 0 9.7-1.7 13.1-2.8l4.5 51.7c-12.1 2.6-32 7.2-50.7 7.2zm-53.9-136.3c-8.5-.6-17-.6-23.8-.6-27.8 0-69.8 6.8-69.8 43.1 0 22.1 15.9 38 38 38 17.6 0 32.4-5.7 42.6-16.5 9.1-9.7 13.1-21 13.1-35.8v-28.2zm213.4 140.3c-38 0-72.1-13.1-89.1-23.3l24.4-58.5c19.3 13.6 47.1 22.7 71 22.7 21 0 46.6-7.4 46.6-31.2 0-19.9-16.5-26.1-44.9-36.9l-25-9.7c-39.2-15.3-65.3-38.6-65.3-82.9 0-57.3 48.3-102.8 119.2-102.8 38 0 65.9 11.9 81.8 19.9l-24.4 58.5c-17.6-11.4-42-18.2-61.3-18.2-32.4 0-42 16.5-42 30.1 0 15.9 14.8 25 35.8 32.4l26.7 9.7c43.1 15.9 73.8 39.2 73.8 89.7-.1 59-47.8 100.5-127.3 100.5zm278.2 0c-53.9 0-87.4-29-87.4-87.4v-163h-50.5v-56.8h50.5v-61.3l79.5-25.5v86.9h69.3v56.8h-69.3v153.3c0 30.1 16.5 36.9 34.6 36.9 16.5 0 27.8-4 34.6-6.2l7.9 58.5c-14.7 3.8-42.5 7.8-69.2 7.8z" fill="#FFF"/></svg>