<svg xmlns="http://www.w3.org/2000/svg" xmlns:xlink="http://www.w3.org/1999/xlink" viewBox="0 0 1220.5 559.9"><linearGradient id="a" gradientUnits="userSpaceOnUse" x1="785.901" y1="55.479" x2="785.901" y2="454.065"><stop offset="0" stop-color="#4aa5b4"/><stop offset="1" stop-color="#0e78a4"/></linearGradient><path d="M865.7 124.1l31.1-22.4s-28.6-48.4-105-48.4c-83.1 0-123.4 55.1-123.4 95.3 0 44.9 3.1 87.2 89.2 116.8 69.8 21.9 109.1 35.7 109.1 80.6 0 51-45.4 79-81.1 79-44.9 0-68.9-15-89-41.1-20.1-26.2-10.4-.7-10.4-.7l42.3 73.4 6.7-5.8s5 5.8 46.8 5.8c48.4 0 121.3-19.9 121.3-111.7 0-84.1-89.7-95.8-126.4-110.1-36.7-14.3-73.4-24-73.4-79.5 0-51.5 52.5-69.3 86.7-69.3 28.6-.1 57.1 10.6 75.5 38.1z" fill="url(#a)"/><linearGradient id="b" gradientUnits="userSpaceOnUse" x1="143.262" y1="61.898" x2="143.262" y2="441.934"><stop offset="0" stop-color="#4aa5b4"/><stop offset="1" stop-color="#0e78a4"/></linearGradient><path fill="url(#b)" d="M80.6 238.8L274.8 62.9h-51.5l-184 169.8h-3.6V62.9H0v384.4h35.7V249h3.6L235 447.3h51.5z"/><defs><path id="c" d="M475.3.3L152.1 560h646.3L475.3.3zm0 147.5l195.4 338.5H279.8l195.5-338.5z"/></defs><clipPath id="d"><use xlink:href="#c" overflow="visible"/></clipPath><g clip-path="url(#d)"><path fill="#81bac0" d="M289.1 284.2l94.8 102.5-62.2 25.4-75.5-97.8z"/><path fill="#92c2c5" d="M266.1 315.8L299.8 458l51.5-38.2-9.7-33.1z"/><path fill="#a8cac7" d="M273.8 314.3l34.6 155.5 116.3-24 35.2 156.5L106 565.6z"/><path fill="#1288a7" d="M745.9 467.2l-2.1 92.8 53.1-27.5z"/><path fill="#2899aa" d="M671 357.6l81.5 206-4.1-170.8-48.4-78.5z"/><linearGradient id="e" gradientUnits="userSpaceOnUse" x1="613.931" y1="397.221" x2="662.88" y2="576.188"><stop offset="0" stop-color="#61acb4"/><stop offset="1" stop-color="#42a1af"/></linearGradient><path fill="url(#e)" d="M673 358.1l92.3 232-203.5-23 75.5-170.8z"/><linearGradient id="f" gradientUnits="userSpaceOnUse" x1="656.084" y1="393.316" x2="426.639" y2="566.165"><stop offset="0" stop-color="#8ebfb9"/><stop offset="1" stop-color="#8ebfc0"/></linearGradient><path fill="url(#f)" d="M673 358.6l-34.7 239.1-209.5-18.3-33.7-180.5z"/><path fill="#58a7b3" d="M586.3 383.1l86.7-24.5-30.6-46.9-108.6-52 8.7 91.8z"/><path fill="#1386a9" d="M498.1 221l148.9 9.1 31.6 122.4-5.6 6.1-150.4-104z"/><path fill="#0c7ba4" d="M518.1 45.2l-55.2 118.7 45.4 59.6L634.2 251 610.3 97.1z"/><path fill="#1891ae" d="M519.5 68.5L452.7 198l-22.4 8.7-35.2-172.3 66.3-46.9 63.2 36.2z"/><path fill="#2999b2" d="M420.6 60.9L450.7 221 364 138.4z"/><path fill="#3da5b8" d="M299.8 301.5l58.6 77 94.3-177.4z"/><path fill="#36a0b5" d="M289.2 314.6l161.4-102.4-70.3-71.3z"/><path fill="#4da6af" d="M801.5 528.4L746.4 558l26 18.3 39.2-11.7z"/></g><linearGradient id="g" gradientUnits="userSpaceOnUse" x1="1068.855" y1="65.061" x2="1068.855" y2="445.002"><stop offset="0" stop-color="#4aa5b4"/><stop offset="1" stop-color="#0e78a4"/></linearGradient><path fill="url(#g)" d="M1219 62.9H918.7v32.6h132.1v351.8h36.2V95.5h132z"/></svg>