<svg width="262pt" height="214pt" viewBox="0 0 836 684" xmlns="http://www.w3.org/2000/svg"><path d="M353.48 10.49c6.71-5.14 14.81-9.31 23.5-8.82 14.54.29 26.89 11.7 31.72 24.88 3.03 7.45 1.97 15.64 2.13 23.47-.1 42.77.22 85.54-.13 128.31-11.32-21-22.47-42.13-33.95-63.07-10.15-19.88-21.13-39.33-31.63-59.04-1.67-3.36-3.2-6.82-4.33-10.4-.41-3.92-.3-7.89-.13-11.83 1.5-8.97 6.14-17.34 12.82-23.5zm96.12-6.67c6.16-2.12 12.86-2.06 19.27-1.34 13.76 3.07 25.34 14.73 27.98 28.63 2.02 8.54-1.22 17.18-4.93 24.77-7.94 14.48-15.51 29.14-23.63 43.52-11.32 21.85-23.59 43.17-35.02 64.96-2.48 4.62-4.86 9.3-7.71 13.7-.15-45.03 0-90.06-.06-135.09.09-4.4-.37-8.93 1.13-13.16 2.84-11.73 11.86-21.48 22.97-25.99zM268.74 68.81c5.48-11.1 16.75-19.4 29.2-20.42 7.53-.91 14.95 1.75 21.47 5.26 4.09 3.38 7.98 7.2 10.86 11.69 23.07 40.54 46.7 80.75 69.72 121.33-23.91-14.73-48.53-28.43-72.55-43.05-14.8-8.86-29.81-17.4-44.6-26.3-7.66-5.72-14.4-13.39-16.64-22.91-1.93-8.47-1.6-17.81 2.54-25.6zm237.79-4.22c5.66-9.09 15.72-15.55 26.48-16.19 17.02-1.43 34.21 11.11 37.57 27.95.5 5.3.49 10.68-.03 15.98-2.1 10.41-9.23 19.53-18.39 24.75-25.19 15.21-50.49 30.19-75.66 45.44-13.25 7.58-26.04 15.98-39.43 23.31 6.8-12.99 14.67-25.39 21.72-38.25 16.12-27.55 32-55.23 47.74-82.99zm-283.41 95.43c-.6-18.04 15.67-35.03 33.84-34.48 5.89-.43 11.41 2.19 16.65 4.53 41.58 22.35 82.98 45.01 124.45 67.55-16.01.59-32.04.2-48.06.31-31.99-.04-63.99.09-95.98-.06-7.23.43-13.51-3.67-19.08-7.74-8.25-7.57-12.51-18.99-11.82-30.11zm340.79-30.91c7.57-3.18 16.16-4.6 24.22-2.49 9.2 2.1 17.28 8.67 21.27 17.23 8.59 16.68 3.35 39.85-13 49.79-4.57 2.95-9.95 4.41-15.39 4.23-43.67.08-87.34-.02-131.01.05-3.81.02-7.62-.1-11.42-.3 19.95-11.52 40.51-21.93 60.59-33.23 17.31-9.12 34.3-18.82 51.64-27.86 4.22-2.74 8.86-4.71 13.1-7.42z" fill="#9fd067"/><path d="M1.98 230.38c277.35.04 554.71-.05 832.07.04.01 4.59-.05 9.18.12 13.77-277.43.06-554.85.03-832.27.01.1-4.61.05-9.22.08-13.82zm16.58 52.28c10.15-.06 20.29.1 30.44-.08 13.61 45.41 27.25 90.81 40.57 136.3 2.71.07 2.49-3.28 3.25-5.1 10.56-36.08 21.31-72.1 31.88-108.18 2.12-7.63 4.89-15.1 6.44-22.87 10.5-.18 21.01.05 31.51-.14.14 81.14.02 162.28.06 243.41-.03 6.7.12 13.4-.11 20.1-12.62-.02-25.24-.1-37.85.06.14-30.07 0-60.13.07-90.19-.18-10.83.37-21.68-.49-32.48-9.28 32.43-17.46 65.17-26.38 97.7-4.75-.22-9.51.08-14.26-.16-1.28-.45-1.13-2.11-1.59-3.15-7.21-27.68-14.7-55.29-22-82.95-1.13-3.7-1.78-7.56-3.39-11.09-.59 5.69-.25 11.42-.32 17.14-.08 35.03.07 70.07-.13 105.1-12.56-.02-25.12.02-37.68.01.04-87.81.07-175.62-.02-263.43zm200.33-.06c29.39.11 58.79.12 88.19 0-.03 10.84-.11 21.69.04 32.54-16.83-.15-33.67-.03-50.51-.06.03 26.61.11 53.22-.04 79.83 15.75.09 31.51-.07 47.26.07 0 10.84-.08 21.68.04 32.52-15.75.05-31.5-.1-47.25.06.06 28.28.01 56.56.02 84.84 17.1.15 34.19.13 51.29.01.3 11.23.04 22.48.15 33.72-29.73-.11-59.46-.06-89.19-.02.07-87.84.07-175.68 0-263.51zm144.27.04c36.71.02 73.42.06 110.12-.02-.06 10.85-.04 21.69-.03 32.54-11.85-.19-23.7-.04-35.55-.09 0 77.02.07 154.04-.04 231.06-12.57-.11-25.15-.04-37.72-.05-.06-77 .03-153.99-.04-230.99-12.23.02-24.45-.09-36.68.04-.04-10.83.04-21.66-.06-32.49zm166.64.02c29.07.04 58.13-.04 87.2.04 6.75.01 14.15 1.16 19.14 6.12 4.99 5.01 6.75 12.34 6.6 19.23-.01 31.98-.03 63.96.01 95.95.24 8.87-5.04 17.59-12.9 21.66-4.32 2.13-9.25 1.88-13.92 1.82.87 7.37 3.41 14.44 4.85 21.73 7.95 32.29 15.81 64.61 23.59 96.95-12.63-.17-25.26-.08-37.89-.06-11.28-46.05-22.47-92.11-33.63-138.18-.31-4.67 3.3-8.53 4.52-12.92 9.14-.22 18.29.06 27.44-.13.21-26.57.12-53.15.05-79.72-12.45-.1-24.9-.19-37.35.05-.01 76.96-.11 153.92.05 230.87-12.58.03-25.16-.02-37.73.04-.07-87.82-.01-175.64-.03-263.45zm187.36.51c3.22-.72 6.55-.49 9.83-.52 22.64.03 45.28-.02 67.92.03 12.1-.27 24.42 10.78 22.84 23.38-.06 72.64.02 145.28-.04 217.92.13 12.8-12.78 22.06-24.75 22.11-23.98-.05-47.96.03-71.94-.05-11.33-.89-22.32-11.17-21.42-23 .05-73.67.04-147.34.01-221.01.51-9.35 8.98-16.57 17.55-18.86m20.27 32.08c-.26 65.63.02 131.26-.15 196.89 14.2.31 28.41.13 42.61.08 0-65.69.09-131.37-.04-197.05-14.14-.07-28.29-.24-42.42.08zM2.93 584.26c276.81.11 553.63.07 830.44.02.06 4.6.01 9.2.06 13.8-269.12-.06-538.24 0-807.36-.02-7.75-.08-15.5.16-23.24-.14.11-4.56 0-9.11.1-13.66zm-.02 52.65c7.03.07 14.07.01 21.1.01 3.35-.02 7.24.62 9.31 3.58 2.58 3.91 2.51 8.92 1.89 13.4-.57 3.6-3.29 6.5-6.71 7.65 2.17 5.08 5.09 9.79 7.46 14.77-3.31.02-6.62.01-9.93 0-2.61-4.62-4.92-9.41-7.46-14.06-2.16.01-4.31 0-6.46.02-.07 4.68-.06 9.37-.03 14.05-2.98-.01-5.97-.01-8.95.03-.4-13.15-.03-26.3-.22-39.45m9.15 8.22c-.02 3.15 0 6.31.07 9.47 4.01 0 8.02-.02 12.02-.23 2.63-2.08 2.39-5.41 1.5-8.28-4.27-1.9-9.07-.74-13.59-.96zm30.23 5.4c1.02-5.81 4.54-12.22 10.92-13.2 6.31-.88 12.74-.18 19.1-.36-.04 2.66-.08 5.33-.11 8-4.78.25-9.59-.21-14.35.31-3.61.6-5.38 4.21-5.97 7.48 6.64.17 13.28-.04 19.91.11-.04 2.52-.06 5.05-.05 7.58-6.58.02-13.16.05-19.74.01.44 3.28 2.2 7.15 5.88 7.63 4.76.35 9.54.02 14.3.15.03 2.69.04 5.38.02 8.08-5.71-.09-11.43.21-17.13-.11-4.17-.15-8.15-2.5-10.18-6.17-3.34-5.87-3.48-12.98-2.6-19.51zm36.36-13.57c11.05-.02 22.11 0 33.17 0-.07 2.69-.09 5.38-.07 8.08-3.89.01-7.79-.02-11.68.02-.04 10.42-.06 20.84.01 31.26-3.11-.01-6.22 0-9.33.03.09-10.42.02-20.84-.03-31.25-4.01-.07-8.02-.09-12.03.01 0-2.72 0-5.44-.04-8.15zm45.75-.02c2.64-.02 5.27-.02 7.91-.02 5.24 13.15 10.61 26.25 15.79 39.42-3.06-.03-6.12-.02-9.18.07-1.38-2.65-2.42-5.45-3.18-8.33-4.8-.06-9.6 0-14.4-.07-1.12 2.79-2.19 5.6-3.3 8.41-3.15-.1-6.29-.1-9.44-.1 5.35-13.09 10.6-26.23 15.8-39.38m-.32 23.81c2.89.07 5.79.07 8.68-.02-1.34-3.62-2.52-7.31-4.3-10.75-2.04 3.32-3.1 7.11-4.38 10.77zm30.6-23.86c2.94.04 5.88.05 8.83.05-.02 13.13-.04 26.26 0 39.4l-8.79-.03c0-13.14.08-26.28-.04-39.42zm16.26.02c3.13.01 6.25.02 9.38.01.04 8.05-.04 16.11-.01 24.17-.28 2.4 1.25 4.35 2.34 6.33 4.76 1.36 9.75.63 14.63.82.03 2.69.04 5.38.05 8.08-5.11-.07-10.23.2-15.33-.14-4.16-.24-8.02-3.11-9.36-7.07-1.91-5.52-1.34-11.45-1.42-17.18.06-5.02-.33-10.02-.28-15.02zm54.76 5.84c1.35-3.85 5.4-5.85 9.3-5.76 8.15-.12 16.3 0 24.46-.04-.04 2.7-.04 5.41-.01 8.11-8.26.21-16.57-.51-24.79.46-1.14 2.49-1.33 5.87 1.75 6.96 5.52.7 11.12-.1 16.66.45 4.1.51 7.47 4.04 8.05 8.11.64 4.42.41 9.69-3.2 12.86-2 2.23-5.22 2.21-7.97 2.41-8.04.06-16.08.07-24.12-.05.08-2.82.24-5.63.54-8.43 8.4.46 16.94.93 25.28-.22.25-2.06.26-4.13-.04-6.18-6.72-1.86-13.8.13-20.54-1.39-6.71-2.54-7.73-11.38-5.37-17.29zm39.21-5.6c11.14-.47 22.29-.05 33.44-.23-.05 2.63-.04 5.26.04 7.9-4.05.28-8.1.27-12.15.22-.04 10.43-.01 20.86.02 31.29-2.94-.01-5.88 0-8.81.06-.13-10.39-.05-20.78-.01-31.17-4.2-.23-8.41-.12-12.61-.39.7-2.52.43-5.14.08-7.68zm51.39.16c6.55-.85 14.27-.61 19.25 4.37 4.56 5.27 4.99 12.74 4.32 19.37-.54 4.89-2.59 10.16-7.09 12.69-4.63 3.02-10.47 2.73-15.76 2.34-5.55-.36-11.06-3.85-12.88-9.25-2.14-6.63-2.21-14.05.12-20.63 1.78-5.05 6.88-8.26 12.04-8.89m-3.64 12.53c-1.23 5.35-1.12 11.2.98 16.34 4.85 3.91 14.32 3.86 16.46-2.98 1.27-5.48 1.4-11.69-1.74-16.6-4.85-2.99-13.7-3.29-15.7 3.24zm34.8-12.88c7.22.01 14.45-.09 21.68.03 3.35.13 7.44.7 9 4.16 3.45 6.78 2.75 17.63-5.43 20.58 2.55 4.89 5.13 9.76 7.76 14.61-3.39-.02-6.78-.05-10.18.02-2.39-4.67-4.84-9.31-7.18-13.99-2.26-.09-4.52-.12-6.78-.11-.12 4.68-.11 9.37-.03 14.06-2.92-.02-5.82-.01-8.73.08-.25-13.15-.01-26.3-.11-39.44m8.76 8.19c-.02 3.14-.05 6.28.11 9.43 3.94.05 7.89 0 11.84-.01 3.32-2.34 3.7-7.39.01-9.56-3.99.05-7.98-.02-11.96.14zm31.22 2.42c1.28-5.04 5.2-9.67 10.6-10.3 6.16-.68 12.42-.27 18.62-.18.01 2.59.01 5.18 0 7.78-4.61.36-9.22.04-13.83.26-3.81.34-6.22 4.08-6.07 7.71 6.44-.03 12.89-.01 19.33 0-.02 2.55-.09 5.11-.17 7.68-6.41-.05-12.81-.05-19.21-.03-.24 3.02 1.56 5.34 3.59 7.33 5.4.74 10.86.28 16.3.44.04 2.69.05 5.38.02 8.09-5.85-.14-11.71.16-17.55-.16-4.68-.19-8.79-3.43-10.65-7.62-2.75-6.62-3.16-14.15-.98-21zm36.41-5.6c1.49-3.54 5.45-4.99 9.06-4.97 8.08-.17 16.16.07 24.24-.13-.06 2.74-.07 5.49-.03 8.24-7.62-.04-15.26-.22-22.87.09-2.91.41-2.82 3.67-2.57 5.92 4.86 3.11 10.93 1.03 16.34 1.62 4.24-.39 8.74 2.02 10.18 6.14 1.38 3.79 1.3 8.16-.17 11.93-1.47 3.5-5.41 5.44-9.07 5.47-8.35.17-16.69 0-25.03.02-.03-2.7-.03-5.39-.01-8.08 6.71.01 13.41 0 20.12.04 1.89.07 3.75-.37 5.57-.86.24-2.18 1.05-5.2-1.55-6.26-6.47-1.46-13.36.58-19.8-1.29-6.46-3.03-7.39-12.07-4.41-17.88zm67.94-.16c2.61-3.41 7.01-4.97 11.21-4.88 6.73.01 13.46.04 20.2-.01-.07 2.73-.07 5.46-.02 8.2-6.08-.1-12.17-.15-18.25-.02-4.02-.05-7.09 3.93-6.87 7.78.2 4.89-1.4 11.34 3.54 14.46 3.77 1.79 8.24.53 12.29.87.05-2.6.06-5.19.03-7.78-2.66.03-5.32.06-7.98.11 0-2.59-.04-5.17-.08-7.74 5.78.15 11.56.03 17.34.03-.12 7.81-.05 15.63-.01 23.45-6.74.09-13.48.05-20.22.08-3.54-.02-7.33-.82-9.87-3.45-4.04-3.78-5.12-9.56-5.2-14.86-.17-5.61.41-11.61 3.89-16.24zm38.66-4.7c7.18-.34 14.37-.09 21.55-.2 3.86-.13 8.3 1.44 9.77 5.33 1.81 4.79 1.75 10.41-.46 15.06-1.11 2.24-3.54 3.24-5.53 4.53 2.49 4.86 5.23 9.6 7.68 14.49-3.33.02-6.67 0-10 0-2.5-4.65-4.96-9.32-7.39-14-2.2-.06-4.39-.06-6.58-.03-.03 4.68-.03 9.35 0 14.03-3.01.01-6.02 0-9.02-.02.01-13.07.09-26.13-.02-39.19m9.06 7.97c-.04 3.16-.05 6.31.01 9.47 3.93.1 7.88.16 11.82-.14.73-.74 1.46-1.47 2.21-2.19.13-1.33.27-2.65.41-3.96-.68-1.04-1.35-2.07-2.01-3.1-4.15-.15-8.3-.13-12.44-.08zm42.77-7.58c5.73-1.06 12.06-.92 17.31 1.87 5.46 3.13 7.47 9.65 7.5 15.62.06 5.93-.29 12.82-5.04 17.07-5 4.85-12.57 4.54-19.01 3.95-5.78-.6-10.68-4.94-12.23-10.49-1.4-5.57-1.35-11.49-.19-17.09 1.16-5.61 6.11-9.94 11.66-10.93m1.86 7.73c-3.06.96-4.76 4.02-4.9 7.11-.22 4.29-.88 9.06 1.42 12.95 2.63 3.93 8.14 4.06 12.24 2.82 4.65-2.05 5.23-7.69 5.04-12.13-.18-3.6-.42-8.07-3.94-10.08-2.99-1.55-6.67-1.5-9.86-.67zm29.71-8.1c3.1-.19 6.22-.22 9.34-.22-.23 8.38-.05 16.77-.12 25.16-.77 7.96 13.2 9.12 14.75 1.89.3-9 .1-18.02.1-27.02 3.07-.02 6.15-.01 9.23.1-.25 9 .07 18.01-.16 27.01-.04 3.63-1.77 7.23-4.87 9.2-4.28 3.22-9.97 3.3-15.09 2.9-4.8-.37-9.77-2.94-11.8-7.48-1.14-2.38-1.13-5.07-1.13-7.63.03-7.97.08-15.94-.25-23.91zm41.01-.23c8.82.15 17.64-.04 26.47.08l-1.8 1.48c.98.18 1.79-.37 2.55-.93 4.39 2.49 6.34 7.6 6.05 12.47.43 5.38-2.33 11.91-8.18 12.93-5.35.46-10.73.08-16.09.23-.21 4.38-.13 8.78-.05 13.17-2.98 0-5.96 0-8.94.02.05-13.15.06-26.3-.01-39.45m8.72 8.27c-.01 3.22 0 6.44-.04 9.66 4.09.38 8.27.63 12.35-.01 1.34-.16 1.77-1.72 2.64-2.53.04-2.34-.38-4.61-1.3-6.74-4.52-.77-9.11-.51-13.65-.38zm66.48-8.26c3.02.04 6.05.03 9.08.01-.23 13.16-.13 26.34-.04 39.5-3.08-.05-6.16-.06-9.23-.09.24-13.14-.15-26.29.19-39.42zm16.23-.02c3.82.06 7.64.05 11.47.03 4.18 8.03 8.18 16.17 12.64 24.05.96-7.98.24-16.05.47-24.06 2.95.02 5.91.02 8.87.01-.06 13.15.07 26.31-.05 39.47-3.76-.02-7.5-.03-11.24-.05-2.71-5.23-5.51-10.4-8.14-15.67-1.51-2.69-2.6-5.7-4.78-7.95-.52 7.88-.19 15.79-.24 23.68-3.03-.01-6.04-.04-9.05-.07.07-13.15-.01-26.3.05-39.44zm52.05.32c6.68-.51 13.38-.12 20.07-.31-.02 2.72-.02 5.44.01 8.16-5.18.1-10.37-.25-15.53.15-3.63.6-5.22 4.47-5.84 7.67-.49 4.56-.44 9.74 2.63 13.48 1.51 1.77 4.05 1.77 6.2 1.87 4.16.03 8.32-.03 12.49-.04.01 2.72.02 5.44.02 8.17-5.8-.08-11.59.04-17.39-.08-4.21-.02-8.47-2.15-10.65-5.81-3.54-5.44-3.4-12.26-2.98-18.48.46-6.36 4.11-13.11 10.72-14.7.12.45.36 1.34.48 1.78l-.23-1.86zm-103.68 32.66c2.46.06 4.93.14 7.41.25-.2 4.05 1.13 9.75-3.49 11.85-.07-1.84-.07-3.65-.07-5.47-1.32-.04-2.63-.07-3.93-.1.02-2.19.06-4.36.08-6.53zm130.82.28c2.43-.12 4.88-.22 7.33-.29.08 2.16.1 4.33.06 6.51-2.45-.04-4.89-.05-7.33-.04-.03-2.07-.04-4.13-.06-6.18z" fill="#07557f"/></svg>