<svg xmlns="http://www.w3.org/2000/svg" width="1055.482" height="1145.478"><g data-name="Group 7311"><g data-name="Group 7304"><path data-name="Rectangle 202" fill="#a0a0a0" d="M103.357 116.782l76.036-78.018 27.704 27-76.037 78.018z"/><g data-name="Group 7303" fill="#c5c5c5"><path data-name="Path 9772" d="M131.043 143.768l3.973-59.358-59.824 4.918z"/><path data-name="Path 9773" d="M207.077 65.755l-59.231 5.496 3.376-59.934z"/></g><path data-name="Path 9774" d="M151.22 11.312l5.378 5.236-6.437 69.497-69.602 8.516-5.372-5.232z" fill="#e5e5e5"/></g><g data-name="Group 7306"><path data-name="Rectangle 203" fill="#a0a0a0" d="M171.915 335.807l-10.204-56.363 158.723-28.735 10.204 56.363z"/><g data-name="Group 7305" fill="#c5c5c5"><path data-name="Path 9775" d="M171.907 335.775l55.795-68.16-76.362-45.474z"/><path data-name="Path 9776" d="M330.621 307.04l-76.14-44.268 55.565-69.363z"/></g><path data-name="Path 9777" d="M310.045 193.399l1.98 10.934-67.479 78.273-91.24-49.539-1.978-10.93z" fill="#e5e5e5"/></g><g data-name="Group 7308"><path data-name="Rectangle 204" fill="#d6d6d6" d="M47.714 251.74l-6.209-55.33 155.82-17.485 6.21 55.33z"/><g data-name="Group 7307" fill="#f8f8f8"><path data-name="Path 9778" d="M47.707 251.707l58.572-62.454-71.083-49.099z"/><path data-name="Path 9779" d="M203.52 234.229l-70.951-47.923 58.437-63.63z"/></g><path data-name="Path 9780" d="M191.012 122.665l1.203 10.73-70.567 71.5-85.259-54.023-1.2-10.725z" fill="#fff"/></g><g data-name="Group 7310"><path data-name="Rectangle 205" fill="#d6d6d6" d="M392.226 367.254l-32.88-14.363 40.45-92.597 32.88 14.363z"/><g data-name="Group 7309" fill="#f8f8f8"><path data-name="Path 9781" d="M392.206 367.247l-15.982-52.808-50.307 23.847z"/><path data-name="Path 9782" d="M432.658 274.656l-49.608 24.156-16.683-53.116z"/></g><path data-name="Path 9783" d="M366.362 245.69l6.377 2.783 17.166 62.422-57.622 30.176-6.37-2.786z" fill="#fff"/></g></g><g data-name="Group 7324"><path data-name="Path 9784" d="M727.644 554.772l.438-.674c11.945-18.474 3.953-44.882-17.851-58.986L449.908 326.756c-21.808-14.1-49.168-10.559-61.116 7.915l-.436.674c-11.946 18.473-3.956 44.881 17.853 58.982l260.323 168.359c21.803 14.101 49.166 10.559 61.112-7.914z" fill="#eec7aa"/><path data-name="Path 9785" d="M504.425 562.662l.558-.559c15.249-15.3 15.367-39.908.262-54.969l-42.073-41.3c-15.105-15.062-39.714-14.875-54.964.421l-.559.558c-15.249 15.3-15.364 39.9-.259 54.97l42.069 41.3c15.109 15.061 39.714 14.873 54.966-.421z" fill="#e4b595"/><path data-name="Path 9786" d="M509.366 645.473l.516-.618c14.091-16.991 12.036-41.945-4.594-55.74l-46.255-37.755c-16.626-13.793-41.53-11.2-55.622 5.788l-.516.62c-14.093 16.99-12.037 41.944 4.593 55.74l46.254 37.755c16.63 13.791 41.536 11.202 55.624-5.79z" fill="#e4b595"/><path data-name="Path 9787" d="M498.14 708.806l.335-.622c9.154-16.878 3.179-37.828-13.344-46.787l-45.85-24.4c-16.523-8.96-37.339-2.542-46.493 14.337l-.335.62c-9.155 16.878-3.181 37.827 13.343 46.788l45.852 24.4c16.521 8.96 37.339 2.541 46.492-14.336z" fill="#e4b595"/><path data-name="Path 9788" d="M751.923 837.255l2.979-1.9c36.635-23.334 61.963-45.423 84.172-61.31 34-24.32 46.941-70.656 20.321-145.581l-148-159.711c-70.98-63.093-91.268-36.869-162.665 27.605l-15.775 12.815c-74.925 58.167-79.47 129.532-83.8 154.782-2.959 17.253-3.945 39.434-3.945 39.434 0 12.816 1.512 46.474 23.66 64.08 57.675 45.843 95.037 117.669 144.922 128.162 36.826 7.749 80.793-21.86 138.131-58.376z" fill="#eec7aa"/><path data-name="Rectangle 206" fill="#eec7aa" d="M612.432 843.615l208.185-132.616L984.27 967.91l-208.185 132.615z"/><g data-name="Group 7313"><g data-name="Group 7312"><path data-name="Path 9789" d="M582.494 222.881h42.745a6.85 6.85 0 110 13.7h-42.745a6.85 6.85 0 110-13.7z" fill="#606971"/></g></g><g data-name="Group 7314"><path data-name="Rectangle 207" d="M458.081 175.66H748.59a16.238 16.238 0 0116.238 16.238V843.17a16.239 16.239 0 01-16.239 16.239H458.082a16.239 16.239 0 01-16.239-16.239V191.898a16.238 16.238 0 0116.238-16.238z" fill="#3e464e"/></g><g data-name="Group 7315"><path data-name="Rectangle 208" fill="#ebeff0" d="M463.057 269.07h281.619v499.875H463.057z"/></g><g data-name="Group 7317"><path data-name="Rectangle 209" fill="#2671ea" d="M503.918 589.119l.079-74.151 208.805.222-.08 74.151z"/><g data-name="Group 7316" fill="#418fe8"><path data-name="Path 9790" d="M712.735 589.306l-86.713-74.048 86.856-75.433z"/><path data-name="Path 9791" d="M503.929 589.083l86.875-73.876-86.721-75.616z"/></g><path data-name="Path 9792" d="M504.083 439.573l-.018 14.384 103.915 84.269 104.895-84.047.006-14.383z" fill="#2a4ce5"/></g><g data-name="Group 7319"><g data-name="Group 7318"><path data-name="Path 9793" d="M576.576 804.999h54.58c4.816 0 8.776 4.533 8.776 10.085s-3.96 10.112-8.776 10.112h-54.58c-4.82 0-8.775-4.566-8.775-10.112s3.955-10.085 8.775-10.085z" fill="#606971"/></g></g><g data-name="Group 7320" transform="translate(674.804 823.308)"><rect data-name="Rectangle 210" width="293.623" height="73.673" rx="1.06" transform="rotate(-32.928 270.042 79.805)" fill="#faf9f8"/><path data-name="Path 9794" d="M229.308 47.884a11.606 11.606 0 103.434-16.05 11.6 11.6 0 00-3.434 16.05z" fill="#e5e5e5"/></g><path data-name="Path 9795" d="M769.221 1144.52l260.208-168.521a6.028 6.028 0 001.746-8.341l-63.6-98.2a6.027 6.027 0 00-8.325-1.819L699.04 1036.16a6.028 6.028 0 00-1.745 8.341l63.6 98.207a6.029 6.029 0 008.326 1.812z" fill="#e5e5e5"/><path data-name="Path 9796" d="M826.641 722.042l2.511.01c22.436-2.338 36.407-23.583 33.557-44.639l-30.88-228.031c-6.154-33.736-24.882-34.785-47.317-32.445l-.821.084c-25.374 5.255-29.445 35.256-29.548 64.323a64.06 64.06 0 00.532 8.314l24.146 191.738c2.852 21.057 25.383 42.982 47.82 40.646z" fill="#e4b595"/><path data-name="Path 9797" d="M836.96 724.417l.825-.107c22.532-2.885 37.916-22.722 34.357-44.3 0 0-41.46-198.68-38.523-233.761 2.71-32.4-26.2-35.219-48.736-32.333l-.825.106c-26.617 6.237-33 47.949-28.69 71.959l34.351 204.587c3.558 21.579 24.708 36.737 47.241 33.849z" fill="#eec7aa"/><path data-name="Path 9798" d="M811.466 414.457a18.886 18.886 0 019.369 1.737 20.914 20.914 0 0112.387 17.375c1.779 16.351 3.977 41.72 2.052 44.487s-10.165 5.494-20.248 1.8-12.188-5.421-14.646-13.427-1.415-38.292-.654-41.246c.698-2.704 2.008-9.929 11.74-10.726z" fill="#ece4d9"/><g data-name="Group 7321"><path data-name="Path 9799" d="M517.293 526.974l.293-.7c7.949-19.23-.668-41.209-19.248-49.094l-51.515-21.373c-18.58-7.885-40.089 1.315-48.04 20.545l-.289.7c-7.951 19.229.666 41.208 19.247 49.094l51.514 21.373c18.581 7.881 40.09-1.318 48.038-20.545z" fill="#eec7aa"/><path data-name="Path 9800" d="M461.357 503.623l.191-.483c5.275-13.25 13.889-22.192 29.486-15.738l13.472 5.58c15.6 6.455 17.571 19.77 12.293 33.016l-.189.486c-5.276 13.247-15.8 21.407-31.4 14.951l-13.473-5.575c-15.592-6.456-15.656-18.992-10.38-32.237z" fill="#ece4d9"/></g><g data-name="Group 7322"><path data-name="Path 9801" d="M518.077 616.975l.3-.707c8.076-19.327-.677-41.418-19.551-49.339l-52.327-21.484c-18.873-7.924-40.72 1.32-48.795 20.646l-.3.708c-8.074 19.327.678 41.419 19.551 49.342l52.328 21.481c18.872 7.924 40.718-1.321 48.794-20.647z" fill="#eec7aa"/><path data-name="Path 9802" d="M463.128 593.756l.191-.472c5.195-12.912 13.684-21.631 29.051-15.34l13.277 5.438c15.367 6.295 17.31 19.278 12.112 32.192l-.189.471c-5.2 12.916-15.567 20.871-30.934 14.575l-13.277-5.434c-15.369-6.294-15.43-18.514-10.231-31.43z" fill="#ece4d9"/></g><g data-name="Group 7323"><path data-name="Path 9803" d="M513.421 703.724l.275-.653c7.524-17.788-1.861-38.628-20.961-46.549l-52.945-21.509c-19.1-7.921-40.683.078-48.209 17.866l-.274.65c-7.526 17.788 1.861 38.628 20.96 46.55l52.946 21.509c19.1 7.917 40.685-.076 48.208-17.864z" fill="#eec7aa"/><path data-name="Path 9804" d="M462.756 683.26l.176-.424c4.724-11.6 12.441-19.43 26.413-13.776l12.071 4.88c13.971 5.652 15.738 17.314 11.013 28.913l-.172.422c-4.725 11.6-14.154 18.745-28.128 13.092l-12.069-4.884c-13.973-5.65-14.027-16.623-9.304-28.223z" fill="#ece4d9"/></g><path data-name="Rectangle 211" fill="none" d="M358.651 155.199h696.831v810.444H358.651z"/></g></svg>